<svg xmlns="http://www.w3.org/2000/svg" xmlns:xlink="http://www.w3.org/1999/xlink" xmlns:lucid="lucid" width="960" height="820"><g transform="translate(-540 -100)" lucid:page-tab-id="H3cHdG970sw6"><path d="M560 145c0-13.8 11.2-25 25-25h870c13.8 0 25 11.2 25 25v730c0 13.8-11.2 25-25 25H585c-13.8 0-25-11.2-25-25z" stroke="#000" stroke-opacity="0" stroke-width="3" fill="#ffbbb1" fill-opacity=".15"/><path d="M908.3 165.73c0-3.32 2.68-6 6-6h227.63c3.32 0 6 2.68 6 6v47.6c0 3.3-2.68 6-6 6H914.3c-3.32 0-6-2.7-6-6z" stroke="#000" stroke-opacity="0" stroke-width="3" fill="#fff" fill-opacity="0"/><use xlink:href="#a" transform="matrix(1,0,0,1,913.2900947459087,164.72649572649573) translate(84.88271604938272 31.138888888888886)"/><path d="M581.33 244.32c0-13.8 11.2-25 25-25h828.7c13.8 0 25 11.2 25 25v108.24c0 13.8-11.2 25-25 25h-828.7c-13.8 0-25-11.2-25-25z" stroke="#000" stroke-opacity="0" stroke-width="3" fill="#ffeca9" fill-opacity=".33"/><use xlink:href="#b" transform="matrix(1,0,0,1,586.3333333333334,224.31623931623932) translate(434.5 29.545138888888886)"/><use xlink:href="#c" transform="matrix(1,0,0,1,586.3333333333334,224.31623931623932) translate(434.5 66.87847222222221)"/><use xlink:href="#d" transform="matrix(1,0,0,1,586.3333333333334,224.31623931623932) translate(434.5 104.21180555555554)"/><use xlink:href="#e" transform="matrix(1,0,0,1,586.3333333333334,224.31623931623932) translate(257.4988271604939 141.54513888888886)"/><path d="M683.5 284.23c0-13.8 11.2-25 25-25H822c13.8 0 25 11.2 25 25v26.6c0 13.82-11.2 25-25 25H708.5c-13.8 0-25-11.18-25-25z" stroke="#000" stroke-opacity="0" stroke-width="3" fill="#ff8f80"/><use xlink:href="#f" transform="matrix(1,0,0,1,688.5073212747632,264.22557821297977) translate(34.82716049382717 39.545138888888886)"/><path d="M1214.8 275.13c0-8.28 6.73-15 15-15h133.5c8.27 0 15 6.72 15 15v46.62c0 8.28-6.73 15-15 15h-133.5c-8.27 0-15-6.72-15-15z" stroke="#000" stroke-opacity="0" stroke-width="3" fill="#e5e5e5"/><use xlink:href="#g" transform="matrix(1,0,0,1,1219.8120585701981,265.1304843304843) translate(14.907407407407419 39.545138888888886)"/><path d="M908.3 226.92c0-3.32 2.68-6 6-6h233.2c3.32 0 6 2.68 6 6v26.3c0 3.32-2.68 6-6 6H914.3c-3.32 0-6-2.68-6-6z" stroke="#000" stroke-opacity="0" stroke-width="3" fill="#fff" fill-opacity="0"/><use xlink:href="#h" transform="matrix(1,0,0,1,913.2900947459086,225.9178859052875) translate(90.83950617283952 21.368055555555543)"/><path d="M581.33 442.95c0-13.8 11.2-25 25-25h828.7c13.8 0 25 11.2 25 25v145.32c0 13.8-11.2 25-25 25h-828.7c-13.8 0-25-11.2-25-25z" stroke="#000" stroke-opacity="0" stroke-width="3" fill="#de5f85" fill-opacity=".33"/><use xlink:href="#b" transform="matrix(1,0,0,1,586.3333333333334,422.9487179487179) translate(434.5 30.701388888888886)"/><use xlink:href="#c" transform="matrix(1,0,0,1,586.3333333333334,422.9487179487179) translate(434.5 68.03472222222221)"/><use xlink:href="#d" transform="matrix(1,0,0,1,586.3333333333334,422.9487179487179) translate(434.5 105.36805555555554)"/><use xlink:href="#d" transform="matrix(1,0,0,1,586.3333333333334,422.9487179487179) translate(434.5 142.70138888888886)"/><use xlink:href="#i" transform="matrix(1,0,0,1,586.3333333333334,422.9487179487179) translate(245.17783950617286 180.0347222222222)"/><path d="M641.24 501.4c0-13.8 11.2-25 25-25h113.48c13.8 0 25 11.2 25 25V528c0 13.82-11.2 25-25 25H666.24c-13.8 0-25-11.18-25-25z" stroke="#000" stroke-opacity="0" stroke-width="3" fill="#c7e8ac"/><use xlink:href="#j" transform="matrix(1,0,0,1,646.2444444444445,481.39708818448986) translate(28.691358024691368 39.545138888888886)"/><path d="M1240.36 492.3c0-8.28 6.7-15 15-15h133.47c8.3 0 15 6.72 15 15v46.62c0 8.28-6.7 15-15 15h-133.47c-8.3 0-15-6.72-15-15z" stroke="#000" stroke-opacity="0" stroke-width="3" fill="#c92d39"/><use xlink:href="#k" transform="matrix(1,0,0,1,1245.3555555555556,482.30199430199417) translate(30.41975308641976 39.545138888888886)"/><path d="M908.3 444.1c0-3.32 2.68-6 6-6h233.2c3.32 0 6 2.68 6 6v26.3c0 3.3-2.68 6-6 6H914.3c-3.32 0-6-2.7-6-6z" stroke="#000" stroke-opacity="0" stroke-width="3" fill="#fff" fill-opacity="0"/><use xlink:href="#l" transform="matrix(1,0,0,1,913.2900947459086,443.0893958767975) translate(57.63580246913585 21.368055555555543)"/><path d="M840.95 502.3c0-13.8 11.2-25 25-25h113.48c13.8 0 25 11.2 25 25v26.62c0 13.8-11.2 25-25 25H865.95c-13.8 0-25-11.2-25-25z" stroke="#000" stroke-opacity="0" stroke-width="3" fill="#e5e5e5"/><use xlink:href="#m" transform="matrix(1,0,0,1,845.9481481481482,482.30199430199417) translate(39.061728395061735 39.545138888888886)"/><path d="M1040.65 502.3c0-13.8 11.2-25 25-25h113.48c13.8 0 25 11.2 25 25v26.62c0 13.8-11.2 25-25 25h-113.48c-13.8 0-25-11.2-25-25z" stroke="#000" stroke-opacity="0" stroke-width="3" fill="#c1e4f7"/><use xlink:href="#n" transform="matrix(1,0,0,1,1045.651851851852,482.30199430199417) translate(24.4567901234568 39.545138888888886)"/><path d="M581.33 678.42c0-13.8 11.2-25 25-25h828.7c13.8 0 25 11.2 25 25v145.32c0 13.8-11.2 25-25 25h-828.7c-13.8 0-25-11.2-25-25z" stroke="#000" stroke-opacity="0" stroke-width="3" fill="#99d5ca" fill-opacity=".33"/><use xlink:href="#b" transform="matrix(1,0,0,1,586.3333333333334,658.416461403863) translate(434.5 30.701388888888886)"/><use xlink:href="#c" transform="matrix(1,0,0,1,586.3333333333334,658.416461403863) translate(434.5 68.03472222222221)"/><use xlink:href="#d" transform="matrix(1,0,0,1,586.3333333333334,658.416461403863) translate(434.5 105.36805555555554)"/><use xlink:href="#d" transform="matrix(1,0,0,1,586.3333333333334,658.416461403863) translate(434.5 142.70138888888886)"/><use xlink:href="#o" transform="matrix(1,0,0,1,586.3333333333334,658.416461403863) translate(282.2951234567902 180.0347222222222)"/><path d="M641.24 736.86c0-13.8 11.2-25 25-25h113.48c13.8 0 25 11.2 25 25v26.62c0 13.8-11.2 25-25 25H666.24c-13.8 0-25-11.2-25-25z" stroke="#000" stroke-opacity="0" stroke-width="3" fill="#c7e8ac"/><g><use xlink:href="#j" transform="matrix(1,0,0,1,646.2444444444445,716.8648316396348) translate(28.691358024691368 39.545138888888886)"/></g><path d="M1240.36 727.77c0-8.28 6.7-15 15-15h133.47c8.3 0 15 6.72 15 15v46.62c0 8.27-6.7 15-15 15h-133.47c-8.3 0-15-6.73-15-15z" stroke="#000" stroke-opacity="0" stroke-width="3" fill="#c92d39"/><g><use xlink:href="#k" transform="matrix(1,0,0,1,1245.3555555555556,717.7697377571393) translate(30.41975308641976 39.545138888888886)"/></g><path d="M908.3 679.56c0-3.32 2.68-6 6-6h233.2c3.32 0 6 2.68 6 6v26.3c0 3.32-2.68 6-6 6H914.3c-3.32 0-6-2.68-6-6z" stroke="#000" stroke-opacity="0" stroke-width="3" fill="#fff" fill-opacity="0"/><g><use xlink:href="#p" transform="matrix(1,0,0,1,913.2900947459086,678.5571393319425) translate(75.96913580246917 21.368055555555543)"/></g><path d="M840.95 737.77c0-13.8 11.2-25 25-25h113.48c13.8 0 25 11.2 25 25v26.62c0 13.8-11.2 25-25 25H865.95c-13.8 0-25-11.2-25-25z" stroke="#000" stroke-opacity="0" stroke-width="3" fill="#e5e5e5"/><g><use xlink:href="#m" transform="matrix(1,0,0,1,845.9481481481482,717.7697377571393) translate(39.061728395061735 39.545138888888886)"/></g><path d="M1040.65 737.77c0-13.8 11.2-25 25-25h113.48c13.8 0 25 11.2 25 25v26.62c0 13.8-11.2 25-25 25h-113.48c-13.8 0-25-11.2-25-25z" stroke="#000" stroke-opacity="0" stroke-width="3" fill="#c1e4f7"/><g><use xlink:href="#n" transform="matrix(1,0,0,1,1045.651851851852,717.7697377571393) translate(24.4567901234568 39.545138888888886)"/></g><defs><path fill="#333" d="M199 0l-22-63H83L61 0H9l90-248h61L250 0h-51zm-33-102l-36-108c-10 38-24 72-36 108h72" id="q"/><path fill="#333" d="M135-194c53 0 70 44 70 98 0 56-19 98-73 100-31 1-45-17-59-34 3 33 2 69 2 105H25l-1-265h48c2 10 0 23 3 31 11-24 29-35 60-35zM114-30c33 0 39-31 40-66 0-38-9-64-40-64-56 0-55 130 0 130" id="r"/><g id="a"><use transform="matrix(0.08641975308641973,0,0,0.08641975308641973,0,0)" xlink:href="#q"/><use transform="matrix(0.08641975308641973,0,0,0.08641975308641973,22.38271604938271,0)" xlink:href="#r"/><use transform="matrix(0.08641975308641973,0,0,0.08641975308641973,41.30864197530863,0)" xlink:href="#r"/></g><path fill="#333" d="M238-95c0 69-44 99-111 99C63 4 22-25 22-93v-155h51v151c-1 38 19 59 55 60 90 1 49-130 58-211h52v153" id="s"/><path fill="#333" d="M137-138c1-29-70-34-71-4 15 46 118 7 119 86 1 83-164 76-172 9l43-7c4 19 20 25 44 25 33 8 57-30 24-41C81-84 22-81 20-136c-2-80 154-74 161-7" id="t"/><path fill="#333" d="M185-48c-13 30-37 53-82 52C43 2 14-33 14-96s30-98 90-98c62 0 83 45 84 108H66c0 31 8 55 39 56 18 0 30-7 34-22zm-45-69c5-46-57-63-70-21-2 6-4 13-4 21h74" id="u"/><path fill="#333" d="M135-150c-39-12-60 13-60 57V0H25l-1-190h47c2 13-1 29 3 40 6-28 27-53 61-41v41" id="v"/><path fill="#333" d="M85 4C-2 5 27-109 22-190h50c7 57-23 150 33 157 60-5 35-97 40-157h50l1 190h-47c-2-12 1-28-3-38-12 25-28 42-61 42" id="w"/><path fill="#333" d="M115-3C79 11 28 4 28-45v-112H4v-33h27l15-45h31v45h36v33H77v99c-1 23 16 31 38 25v30" id="x"/><path fill="#333" d="M114-157C55-157 80-60 75 0H25v-261h50l-1 109c12-26 28-41 61-42 86-1 58 113 63 194h-50c-7-57 23-157-34-157" id="y"/><path fill="#333" d="M240-174c0 40-23 61-54 70L253 0h-59l-57-94H76V0H24v-248c93 4 217-23 216 74zM76-134c48-2 112 12 112-38 0-48-66-32-112-35v73" id="z"/><path fill="#333" d="M67-125c0 53 21 87 73 88 37 1 54-22 65-47l45 17C233-25 199 4 140 4 58 4 20-42 15-125 8-235 124-281 211-232c18 10 29 29 36 50l-46 12c-8-25-30-41-62-41-52 0-71 34-72 86" id="A"/><path fill="#333" d="M110-194c64 0 96 36 96 99 0 64-35 99-97 99-61 0-95-36-95-99 0-62 34-99 96-99zm-1 164c35 0 45-28 45-65 0-40-10-65-43-65-34 0-45 26-45 65 0 36 10 65 43 65" id="B"/><path fill="#333" d="M135-194c87-1 58 113 63 194h-50c-7-57 23-157-34-157-59 0-34 97-39 157H25l-1-190h47c2 12-1 28 3 38 12-26 28-41 61-42" id="C"/><path fill="#333" d="M25 0v-261h50V0H25" id="D"/><g id="e"><use transform="matrix(0.08641975308641973,0,0,0.08641975308641973,0,0)" xlink:href="#s"/><use transform="matrix(0.08641975308641973,0,0,0.08641975308641973,22.38271604938271,0)" xlink:href="#t"/><use transform="matrix(0.08641975308641973,0,0,0.08641975308641973,39.66666666666666,0)" xlink:href="#u"/><use transform="matrix(0.08641975308641973,0,0,0.08641975308641973,56.950617283950606,0)" xlink:href="#v"/><use transform="matrix(0.08641975308641973,0,0,0.08641975308641973,69.04938271604937,0)" xlink:href="#q"/><use transform="matrix(0.08641975308641973,0,0,0.08641975308641973,91.43209876543207,0)" xlink:href="#w"/><use transform="matrix(0.08641975308641973,0,0,0.08641975308641973,110.358024691358,0)" xlink:href="#x"/><use transform="matrix(0.08641975308641973,0,0,0.08641975308641973,120.64197530864195,0)" xlink:href="#y"/><use transform="matrix(0.08641975308641973,0,0,0.08641975308641973,139.56790123456787,0)" xlink:href="#z"/><use transform="matrix(0.08641975308641973,0,0,0.08641975308641973,161.95061728395058,0)" xlink:href="#u"/><use transform="matrix(0.08641975308641973,0,0,0.08641975308641973,179.23456790123453,0)" xlink:href="#t"/><use transform="matrix(0.08641975308641973,0,0,0.08641975308641973,196.51851851851848,0)" xlink:href="#x"/><use transform="matrix(0.08641975308641973,0,0,0.08641975308641973,206.80246913580243,0)" xlink:href="#A"/><use transform="matrix(0.08641975308641973,0,0,0.08641975308641973,229.18518518518513,0)" xlink:href="#B"/><use transform="matrix(0.08641975308641973,0,0,0.08641975308641973,248.11111111111106,0)" xlink:href="#C"/><use transform="matrix(0.08641975308641973,0,0,0.08641975308641973,267.03703703703695,0)" xlink:href="#x"/><use transform="matrix(0.08641975308641973,0,0,0.08641975308641973,277.3209876543209,0)" xlink:href="#v"/><use transform="matrix(0.08641975308641973,0,0,0.08641975308641973,289.4197530864197,0)" xlink:href="#B"/><use transform="matrix(0.08641975308641973,0,0,0.08641975308641973,308.3456790123456,0)" xlink:href="#D"/><use transform="matrix(0.08641975308641973,0,0,0.08641975308641973,316.9876543209876,0)" xlink:href="#D"/><use transform="matrix(0.08641975308641973,0,0,0.08641975308641973,325.62962962962956,0)" xlink:href="#u"/><use transform="matrix(0.08641975308641973,0,0,0.08641975308641973,342.9135802469135,0)" xlink:href="#v"/></g><path fill="#333" d="M24 0v-248h52v208h133V0H24" id="E"/><path fill="#333" d="M195-6C206 82 75 100 31 46c-4-6-6-13-8-21l49-6c3 16 16 24 34 25 40 0 42-37 40-79-11 22-30 35-61 35-53 0-70-43-70-97 0-56 18-96 73-97 30 0 46 14 59 34l2-30h47zm-90-29c32 0 41-27 41-63 0-35-9-62-40-62-32 0-39 29-40 63 0 36 9 62 39 62" id="F"/><path fill="#333" d="M24 0v-248h52V0H24" id="G"/><g id="f"><use transform="matrix(0.08641975308641973,0,0,0.08641975308641973,0,0)" xlink:href="#E"/><use transform="matrix(0.08641975308641973,0,0,0.08641975308641973,18.92592592592592,0)" xlink:href="#B"/><use transform="matrix(0.08641975308641973,0,0,0.08641975308641973,37.85185185185184,0)" xlink:href="#F"/><use transform="matrix(0.08641975308641973,0,0,0.08641975308641973,56.77777777777776,0)" xlink:href="#G"/><use transform="matrix(0.08641975308641973,0,0,0.08641975308641973,65.41975308641973,0)" xlink:href="#C"/></g><path fill="#333" d="M25-224v-37h50v37H25zM25 0v-190h50V0H25" id="H"/><g id="g"><use transform="matrix(0.08641975308641973,0,0,0.08641975308641973,0,0)" xlink:href="#z"/><use transform="matrix(0.08641975308641973,0,0,0.08641975308641973,22.38271604938271,0)" xlink:href="#u"/><use transform="matrix(0.08641975308641973,0,0,0.08641975308641973,39.66666666666666,0)" xlink:href="#F"/><use transform="matrix(0.08641975308641973,0,0,0.08641975308641973,58.59259259259258,0)" xlink:href="#H"/><use transform="matrix(0.08641975308641973,0,0,0.08641975308641973,67.23456790123456,0)" xlink:href="#t"/><use transform="matrix(0.08641975308641973,0,0,0.08641975308641973,84.5185185185185,0)" xlink:href="#x"/><use transform="matrix(0.08641975308641973,0,0,0.08641975308641973,94.80246913580245,0)" xlink:href="#u"/><use transform="matrix(0.08641975308641973,0,0,0.08641975308641973,112.08641975308639,0)" xlink:href="#v"/></g><path fill="#333" d="M0 4l72-265h28L28 4H0" id="I"/><path fill="#333" d="M141-36C126-15 110 5 73 4 37 3 15-17 15-53c-1-64 63-63 125-63 3-35-9-54-41-54-24 1-41 7-42 31l-33-3c5-37 33-52 76-52 45 0 72 20 72 64v82c-1 20 7 32 28 27v20c-31 9-61-2-59-35zM48-53c0 20 12 33 32 33 41-3 63-29 60-74-43 2-92-5-92 41" id="J"/><path fill="#333" d="M84 4C-5 8 30-112 23-190h32v120c0 31 7 50 39 49 72-2 45-101 50-169h31l1 190h-30c-1-10 1-25-2-33-11 22-28 36-60 37" id="K"/><path fill="#333" d="M59-47c-2 24 18 29 38 22v24C64 9 27 4 27-40v-127H5v-23h24l9-43h21v43h35v23H59v120" id="L"/><path fill="#333" d="M106-169C34-169 62-67 57 0H25v-261h32l-1 103c12-21 28-36 61-36 89 0 53 116 60 194h-32v-121c2-32-8-49-39-48" id="M"/><g id="h"><use transform="matrix(0.06790123456790119,0,0,0.06790123456790119,0,0)" xlink:href="#I"/><use transform="matrix(0.06790123456790119,0,0,0.06790123456790119,6.790123456790119,0)" xlink:href="#J"/><use transform="matrix(0.06790123456790119,0,0,0.06790123456790119,20.370370370370356,0)" xlink:href="#K"/><use transform="matrix(0.06790123456790119,0,0,0.06790123456790119,33.95061728395059,0)" xlink:href="#L"/><use transform="matrix(0.06790123456790119,0,0,0.06790123456790119,40.74074074074071,0)" xlink:href="#M"/></g><path fill="#333" d="M133-34C117-15 103 5 69 4 32 3 11-16 11-54c-1-60 55-63 116-61 1-26-3-47-28-47-18 1-26 9-28 27l-52-2c7-38 36-58 82-57s74 22 75 68l1 82c-1 14 12 18 25 15v27c-30 8-71 5-69-32zm-48 3c29 0 43-24 42-57-32 0-66-3-65 30 0 17 8 27 23 27" id="N"/><path fill="#333" d="M190-63c-7 42-38 67-86 67-59 0-84-38-90-98-12-110 154-137 174-36l-49 2c-2-19-15-32-35-32-30 0-35 28-38 64-6 74 65 87 74 30" id="O"/><g id="i"><use transform="matrix(0.08641975308641973,0,0,0.08641975308641973,0,0)" xlink:href="#A"/><use transform="matrix(0.08641975308641973,0,0,0.08641975308641973,22.38271604938271,0)" xlink:href="#y"/><use transform="matrix(0.08641975308641973,0,0,0.08641975308641973,41.30864197530863,0)" xlink:href="#N"/><use transform="matrix(0.08641975308641973,0,0,0.08641975308641973,58.59259259259258,0)" xlink:href="#v"/><use transform="matrix(0.08641975308641973,0,0,0.08641975308641973,70.69135802469134,0)" xlink:href="#N"/><use transform="matrix(0.08641975308641973,0,0,0.08641975308641973,87.97530864197529,0)" xlink:href="#O"/><use transform="matrix(0.08641975308641973,0,0,0.08641975308641973,105.25925925925924,0)" xlink:href="#x"/><use transform="matrix(0.08641975308641973,0,0,0.08641975308641973,115.54320987654319,0)" xlink:href="#u"/><use transform="matrix(0.08641975308641973,0,0,0.08641975308641973,132.82716049382714,0)" xlink:href="#v"/><use transform="matrix(0.08641975308641973,0,0,0.08641975308641973,144.9259259259259,0)" xlink:href="#t"/><use transform="matrix(0.08641975308641973,0,0,0.08641975308641973,162.20987654320984,0)" xlink:href="#z"/><use transform="matrix(0.08641975308641973,0,0,0.08641975308641973,184.59259259259255,0)" xlink:href="#u"/><use transform="matrix(0.08641975308641973,0,0,0.08641975308641973,201.8765432098765,0)" xlink:href="#t"/><use transform="matrix(0.08641975308641973,0,0,0.08641975308641973,219.16049382716045,0)" xlink:href="#x"/><use transform="matrix(0.08641975308641973,0,0,0.08641975308641973,229.4444444444444,0)" xlink:href="#A"/><use transform="matrix(0.08641975308641973,0,0,0.08641975308641973,251.8271604938271,0)" xlink:href="#B"/><use transform="matrix(0.08641975308641973,0,0,0.08641975308641973,270.753086419753,0)" xlink:href="#C"/><use transform="matrix(0.08641975308641973,0,0,0.08641975308641973,289.6790123456789,0)" xlink:href="#x"/><use transform="matrix(0.08641975308641973,0,0,0.08641975308641973,299.9629629629629,0)" xlink:href="#v"/><use transform="matrix(0.08641975308641973,0,0,0.08641975308641973,312.06172839506166,0)" xlink:href="#B"/><use transform="matrix(0.08641975308641973,0,0,0.08641975308641973,330.9876543209876,0)" xlink:href="#D"/><use transform="matrix(0.08641975308641973,0,0,0.08641975308641973,339.62962962962956,0)" xlink:href="#D"/><use transform="matrix(0.08641975308641973,0,0,0.08641975308641973,348.27160493827154,0)" xlink:href="#u"/><use transform="matrix(0.08641975308641973,0,0,0.08641975308641973,365.5555555555555,0)" xlink:href="#v"/></g><g id="j"><use transform="matrix(0.08641975308641973,0,0,0.08641975308641973,0,0)" xlink:href="#A"/><use transform="matrix(0.08641975308641973,0,0,0.08641975308641973,22.38271604938271,0)" xlink:href="#v"/><use transform="matrix(0.08641975308641973,0,0,0.08641975308641973,34.481481481481474,0)" xlink:href="#u"/><use transform="matrix(0.08641975308641973,0,0,0.08641975308641973,51.76543209876541,0)" xlink:href="#N"/><use transform="matrix(0.08641975308641973,0,0,0.08641975308641973,69.04938271604937,0)" xlink:href="#x"/><use transform="matrix(0.08641975308641973,0,0,0.08641975308641973,79.33333333333331,0)" xlink:href="#u"/></g><path fill="#333" d="M24-248c120-7 223 5 221 122C244-46 201 0 124 0H24v-248zM76-40c74 7 117-18 117-86 0-67-45-88-117-82v168" id="P"/><g id="k"><use transform="matrix(0.08641975308641973,0,0,0.08641975308641973,0,0)" xlink:href="#P"/><use transform="matrix(0.08641975308641973,0,0,0.08641975308641973,22.38271604938271,0)" xlink:href="#u"/><use transform="matrix(0.08641975308641973,0,0,0.08641975308641973,39.66666666666666,0)" xlink:href="#D"/><use transform="matrix(0.08641975308641973,0,0,0.08641975308641973,48.30864197530863,0)" xlink:href="#u"/><use transform="matrix(0.08641975308641973,0,0,0.08641975308641973,65.59259259259258,0)" xlink:href="#x"/><use transform="matrix(0.08641975308641973,0,0,0.08641975308641973,75.87654320987653,0)" xlink:href="#u"/></g><path fill="#333" d="M96-169c-40 0-48 33-48 73s9 75 48 75c24 0 41-14 43-38l32 2c-6 37-31 61-74 61-59 0-76-41-82-99-10-93 101-131 147-64 4 7 5 14 7 22l-32 3c-4-21-16-35-41-35" id="Q"/><path fill="#333" d="M114-163C36-179 61-72 57 0H25l-1-190h30c1 12-1 29 2 39 6-27 23-49 58-41v29" id="R"/><path fill="#333" d="M100-194c63 0 86 42 84 106H49c0 40 14 67 53 68 26 1 43-12 49-29l28 8c-11 28-37 45-77 45C44 4 14-33 15-96c1-61 26-98 85-98zm52 81c6-60-76-77-97-28-3 7-6 17-6 28h103" id="S"/><path fill="#333" d="M135-143c-3-34-86-38-87 0 15 53 115 12 119 90S17 21 10-45l28-5c4 36 97 45 98 0-10-56-113-15-118-90-4-57 82-63 122-42 12 7 21 19 24 35" id="T"/><g id="l"><use transform="matrix(0.06790123456790119,0,0,0.06790123456790119,0,0)" xlink:href="#I"/><use transform="matrix(0.06790123456790119,0,0,0.06790123456790119,6.790123456790119,0)" xlink:href="#Q"/><use transform="matrix(0.06790123456790119,0,0,0.06790123456790119,19.012345679012334,0)" xlink:href="#M"/><use transform="matrix(0.06790123456790119,0,0,0.06790123456790119,32.592592592592574,0)" xlink:href="#J"/><use transform="matrix(0.06790123456790119,0,0,0.06790123456790119,46.172839506172814,0)" xlink:href="#R"/><use transform="matrix(0.06790123456790119,0,0,0.06790123456790119,54.25308641975305,0)" xlink:href="#J"/><use transform="matrix(0.06790123456790119,0,0,0.06790123456790119,67.83333333333329,0)" xlink:href="#Q"/><use transform="matrix(0.06790123456790119,0,0,0.06790123456790119,80.0555555555555,0)" xlink:href="#L"/><use transform="matrix(0.06790123456790119,0,0,0.06790123456790119,86.8456790123456,0)" xlink:href="#S"/><use transform="matrix(0.06790123456790119,0,0,0.06790123456790119,100.42592592592585,0)" xlink:href="#R"/><use transform="matrix(0.06790123456790119,0,0,0.06790123456790119,108.50617283950608,0)" xlink:href="#T"/></g><path fill="#333" d="M88-194c31-1 46 15 58 34l-1-101h50l1 261h-48c-2-10 0-23-3-31C134-8 116 4 84 4 32 4 16-41 15-95c0-56 19-97 73-99zm17 164c33 0 40-30 41-66 1-37-9-64-41-64s-38 30-39 65c0 43 13 65 39 65" id="U"/><g id="m"><use transform="matrix(0.08641975308641973,0,0,0.08641975308641973,0,0)" xlink:href="#z"/><use transform="matrix(0.08641975308641973,0,0,0.08641975308641973,22.38271604938271,0)" xlink:href="#u"/><use transform="matrix(0.08641975308641973,0,0,0.08641975308641973,39.66666666666666,0)" xlink:href="#N"/><use transform="matrix(0.08641975308641973,0,0,0.08641975308641973,56.950617283950606,0)" xlink:href="#U"/></g><g id="n"><use transform="matrix(0.08641975308641973,0,0,0.08641975308641973,0,0)" xlink:href="#s"/><use transform="matrix(0.08641975308641973,0,0,0.08641975308641973,22.38271604938271,0)" xlink:href="#r"/><use transform="matrix(0.08641975308641973,0,0,0.08641975308641973,41.30864197530863,0)" xlink:href="#U"/><use transform="matrix(0.08641975308641973,0,0,0.08641975308641973,60.234567901234556,0)" xlink:href="#N"/><use transform="matrix(0.08641975308641973,0,0,0.08641975308641973,77.5185185185185,0)" xlink:href="#x"/><use transform="matrix(0.08641975308641973,0,0,0.08641975308641973,87.80246913580245,0)" xlink:href="#u"/></g><path fill="#333" d="M230 0l2-204L168 0h-37L68-204 70 0H24v-248h70l56 185 57-185h69V0h-46" id="V"/><path fill="#333" d="M128 0H69L1-190h53L99-40l48-150h52" id="W"/><g id="o"><use transform="matrix(0.08641975308641973,0,0,0.08641975308641973,0,0)" xlink:href="#V"/><use transform="matrix(0.08641975308641973,0,0,0.08641975308641973,25.8395061728395,0)" xlink:href="#B"/><use transform="matrix(0.08641975308641973,0,0,0.08641975308641973,44.765432098765416,0)" xlink:href="#W"/><use transform="matrix(0.08641975308641973,0,0,0.08641975308641973,62.04938271604937,0)" xlink:href="#H"/><use transform="matrix(0.08641975308641973,0,0,0.08641975308641973,70.69135802469134,0)" xlink:href="#u"/><use transform="matrix(0.08641975308641973,0,0,0.08641975308641973,87.97530864197529,0)" xlink:href="#z"/><use transform="matrix(0.08641975308641973,0,0,0.08641975308641973,110.358024691358,0)" xlink:href="#u"/><use transform="matrix(0.08641975308641973,0,0,0.08641975308641973,127.64197530864195,0)" xlink:href="#t"/><use transform="matrix(0.08641975308641973,0,0,0.08641975308641973,144.9259259259259,0)" xlink:href="#x"/><use transform="matrix(0.08641975308641973,0,0,0.08641975308641973,155.20987654320984,0)" xlink:href="#A"/><use transform="matrix(0.08641975308641973,0,0,0.08641975308641973,177.59259259259255,0)" xlink:href="#B"/><use transform="matrix(0.08641975308641973,0,0,0.08641975308641973,196.51851851851848,0)" xlink:href="#C"/><use transform="matrix(0.08641975308641973,0,0,0.08641975308641973,215.4444444444444,0)" xlink:href="#x"/><use transform="matrix(0.08641975308641973,0,0,0.08641975308641973,225.72839506172835,0)" xlink:href="#v"/><use transform="matrix(0.08641975308641973,0,0,0.08641975308641973,237.8271604938271,0)" xlink:href="#B"/><use transform="matrix(0.08641975308641973,0,0,0.08641975308641973,256.753086419753,0)" xlink:href="#D"/><use transform="matrix(0.08641975308641973,0,0,0.08641975308641973,265.395061728395,0)" xlink:href="#D"/><use transform="matrix(0.08641975308641973,0,0,0.08641975308641973,274.03703703703695,0)" xlink:href="#u"/><use transform="matrix(0.08641975308641973,0,0,0.08641975308641973,291.3209876543209,0)" xlink:href="#v"/></g><path fill="#333" d="M210-169c-67 3-38 105-44 169h-31v-121c0-29-5-50-35-48C34-165 62-65 56 0H25l-1-190h30c1 10-1 24 2 32 10-44 99-50 107 0 11-21 27-35 58-36 85-2 47 119 55 194h-31v-121c0-29-5-49-35-48" id="X"/><path fill="#333" d="M100-194c62-1 85 37 85 99 1 63-27 99-86 99S16-35 15-95c0-66 28-99 85-99zM99-20c44 1 53-31 53-75 0-43-8-75-51-75s-53 32-53 75 10 74 51 75" id="Y"/><path fill="#333" d="M108 0H70L1-190h34L89-25l56-165h34" id="Z"/><path fill="#333" d="M24-231v-30h32v30H24zM24 0v-190h32V0H24" id="aa"/><g id="p"><use transform="matrix(0.06790123456790119,0,0,0.06790123456790119,0,0)" xlink:href="#I"/><use transform="matrix(0.06790123456790119,0,0,0.06790123456790119,6.790123456790119,0)" xlink:href="#X"/><use transform="matrix(0.06790123456790119,0,0,0.06790123456790119,27.092592592592574,0)" xlink:href="#Y"/><use transform="matrix(0.06790123456790119,0,0,0.06790123456790119,40.672839506172814,0)" xlink:href="#Z"/><use transform="matrix(0.06790123456790119,0,0,0.06790123456790119,52.89506172839503,0)" xlink:href="#aa"/><use transform="matrix(0.06790123456790119,0,0,0.06790123456790119,58.25925925925922,0)" xlink:href="#S"/><use transform="matrix(0.06790123456790119,0,0,0.06790123456790119,71.83950617283946,0)" xlink:href="#T"/></g></defs></g></svg>