<svg xmlns="http://www.w3.org/2000/svg" xmlns:xlink="http://www.w3.org/1999/xlink" xmlns:lucid="lucid" width="1440" height="651"><g transform="translate(-215.43307086614163 -200)" lucid:page-tab-id="ebcH17bmVTXg"><path d="M235.43 566c0-3.3 2.7-6 6-6h248c3.32 0 6 2.7 6 6v128c0 3.3-2.68 6-6 6h-248c-3.3 0-6-2.7-6-6z" stroke="#b2b2b2" stroke-width="3" fill="#fff"/><use xlink:href="#a" transform="matrix(1,0,0,1,243.43307086614163,568) translate(8.370370370370424 67.33333333333333)"/><path d="M540.87 366c0-3.3 2.68-6 6-6h292.56c3.32 0 6 2.7 6 6v128c0 3.3-2.68 6-6 6H546.87c-3.32 0-6-2.7-6-6z" stroke="#b2b2b2" stroke-width="3" fill="#fff"/><use xlink:href="#b" transform="matrix(1,0,0,1,545.8661416883298,365) translate(10.611111111111171 70.08333333333333)"/><path d="M365.45 557.5l.1-4.27.3-5.06.52-4.87.7-4.72.87-4.56 1.04-4.44 1.2-4.32 1.38-4.23 1.53-4.13 1.7-4.05 1.87-3.98 2.05-3.93 2.24-3.87 2.43-3.82 2.62-3.78 2.84-3.75 3.08-3.72 3.32-3.7 3.6-3.66 3.87-3.63 4.18-3.6 4.53-3.6 4.88-3.53 5.28-3.5 5.7-3.45 6.13-3.37 6.63-3.28 7.13-3.17 7.65-3.03 8.2-2.86 8.75-2.62 9.28-2.38 9.8-2.08 10.24-1.74 10.64-1.34 10.95-.92 11.13-.46 3.77-.04" stroke="#b2b2b2" stroke-width="2" fill="none"/><path d="M366.45 557.5l-.02 1h-2l.02-1.05" fill="#b2b2b2"/><path d="M520.5 440.75l16.9-10.7-17.5-9.65" stroke="#b2b2b2" stroke-width="2" fill="none"/><path d="M965.43 366c0-3.3 2.7-6 6-6h268c3.32 0 6 2.7 6 6v118c0 3.3-2.68 6-6 6h-268c-3.3 0-6-2.7-6-6z" stroke="#b2b2b2" stroke-width="3" fill="#fff"/><use xlink:href="#c" transform="matrix(1,0,0,1,973.433070822188,368) translate(-1.8888888888888289 62.33333333333333)"/><path d="M965.43 556c0-3.3 2.7-6 6-6h288c3.32 0 6 2.7 6 6v68c0 3.3-2.68 6-6 6h-288c-3.3 0-6-2.7-6-6z" stroke="#b2b2b2" stroke-width="3" fill="#fff"/><use xlink:href="#d" transform="matrix(1,0,0,1,973.433070822188,558) translate(1.9772135416666856 38.46223958333333)"/><path d="M1115.43 547.5v-31.52" stroke="#b2b2b2" stroke-width="2" fill="none"/><path d="M1116.43 548.5h-2v-1.03h2" fill="#b2b2b2"/><path d="M1115.43 493.46l12.73 21.52h-25.45z" stroke="#b2b2b2" stroke-width="2" fill="#fff"/><path d="M847.93 430H962.1" stroke="#b2b2b2" stroke-width="2" fill="none"/><path d="M847.96 431h-1.03v-2h1.03" fill="#b2b2b2"/><path d="M944.75 440.18L961.97 430l-17.22-10.18" stroke="#b2b2b2" stroke-width="2" fill="none"/><path d="M965.43 226c0-3.3 2.7-6 6-6h288c3.32 0 6 2.7 6 6v68c0 3.3-2.68 6-6 6h-288c-3.3 0-6-2.7-6-6z" stroke="#b2b2b2" stroke-width="3" fill="#fff"/><use xlink:href="#e" transform="matrix(1,0,0,1,973.433070822188,228) translate(24.38085937500003 38.46223958333333)"/><path d="M1115.43 303.32v54.18M1125.6 320.68l-10.17-17.2-10.18 17.2" stroke="#b2b2b2" stroke-width="2" fill="none"/><path d="M1116.43 358.5h-2v-1.03h2" fill="#b2b2b2"/><path d="M1335.43 371c0-3.3 2.7-6 6-6h268c3.32 0 6 2.7 6 6v108c0 3.3-2.68 6-6 6h-268c-3.3 0-6-2.7-6-6z" stroke="#b2b2b2" stroke-width="3" fill="#fff"/><use xlink:href="#f" transform="matrix(1,0,0,1,1343.4330708661416,373) translate(18.925925925925995 57.33333333333333)"/><path d="M1247.93 425h84.18" stroke="#b2b2b2" stroke-width="2" fill="none"/><path d="M1247.96 426h-1.03v-2h1.03" fill="#b2b2b2"/><path d="M1314.75 435.18l17.22-10.18-17.22-10.18" stroke="#b2b2b2" stroke-width="2" fill="none"/><path d="M1335.43 556c0-3.3 2.7-6 6-6h288c3.32 0 6 2.7 6 6v68c0 3.3-2.68 6-6 6h-288c-3.3 0-6-2.7-6-6z" stroke="#b2b2b2" stroke-width="3" fill="#fff"/><use xlink:href="#g" transform="matrix(1,0,0,1,1343.4330708661416,558) translate(35.582682291666686 38.46223958333333)"/><path d="M1485.43 547.5v-36.52" stroke="#b2b2b2" stroke-width="2" fill="none"/><path d="M1486.43 548.5h-2v-1.03h2" fill="#b2b2b2"/><path d="M1485.43 488.46l12.73 21.52h-25.45z" stroke="#b2b2b2" stroke-width="2" fill="#fff"/><path d="M1405.43 706c0-3.3 2.7-6 6-6h148c3.32 0 6 2.7 6 6v119c0 3.3-2.68 6-6 6h-148c-3.3 0-6-2.7-6-6z" stroke="#b2b2b2" stroke-width="3" fill="#fff"/><use xlink:href="#h" transform="matrix(1,0,0,1,1413.4330708661416,708) translate(34.33333333333335 62.83333333333333)"/><path d="M1485.43 632.5v64.18" stroke="#b2b2b2" stroke-width="2" fill="none"/><path d="M1486.43 632.53h-2v-1.03h2" fill="#b2b2b2"/><path d="M1475.25 679.32l10.18 17.22 10.18-17.22" stroke="#b2b2b2" stroke-width="2" fill="none"/><defs><path fill="#333" d="M266 0h-40l-56-210L115 0H75L2-248h35L96-30l15-64 43-154h32l59 218 59-218h35" id="i"/><path fill="#333" d="M100-194c63 0 86 42 84 106H49c0 40 14 67 53 68 26 1 43-12 49-29l28 8c-11 28-37 45-77 45C44 4 14-33 15-96c1-61 26-98 85-98zm52 81c6-60-76-77-97-28-3 7-6 17-6 28h103" id="j"/><path fill="#333" d="M115-194c53 0 69 39 70 98 0 66-23 100-70 100C84 3 66-7 56-30L54 0H23l1-261h32v101c10-23 28-34 59-34zm-8 174c40 0 45-34 45-75 0-40-5-75-45-74-42 0-51 32-51 76 0 43 10 73 51 73" id="k"/><path fill="#333" d="M185-189c-5-48-123-54-124 2 14 75 158 14 163 119 3 78-121 87-175 55-17-10-28-26-33-46l33-7c5 56 141 63 141-1 0-78-155-14-162-118-5-82 145-84 179-34 5 7 8 16 11 25" id="l"/><path fill="#333" d="M96-169c-40 0-48 33-48 73s9 75 48 75c24 0 41-14 43-38l32 2c-6 37-31 61-74 61-59 0-76-41-82-99-10-93 101-131 147-64 4 7 5 14 7 22l-32 3c-4-21-16-35-41-35" id="m"/><path fill="#333" d="M84 4C-5 8 30-112 23-190h32v120c0 31 7 50 39 49 72-2 45-101 50-169h31l1 190h-30c-1-10 1-25-2-33-11 22-28 36-60 37" id="n"/><path fill="#333" d="M114-163C36-179 61-72 57 0H25l-1-190h30c1 12-1 29 2 39 6-27 23-49 58-41v29" id="o"/><path fill="#333" d="M24-231v-30h32v30H24zM24 0v-190h32V0H24" id="p"/><path fill="#333" d="M59-47c-2 24 18 29 38 22v24C64 9 27 4 27-40v-127H5v-23h24l9-43h21v43h35v23H59v120" id="q"/><path fill="#333" d="M179-190L93 31C79 59 56 82 12 73V49c39 6 53-20 64-50L1-190h34L92-34l54-156h33" id="r"/><path fill="#333" d="M212-179c-10-28-35-45-73-45-59 0-87 40-87 99 0 60 29 101 89 101 43 0 62-24 78-52l27 14C228-24 195 4 139 4 59 4 22-46 18-125c-6-104 99-153 187-111 19 9 31 26 39 46" id="s"/><path fill="#333" d="M100-194c62-1 85 37 85 99 1 63-27 99-86 99S16-35 15-95c0-66 28-99 85-99zM99-20c44 1 53-31 53-75 0-43-8-75-51-75s-53 32-53 75 10 74 51 75" id="t"/><path fill="#333" d="M117-194c89-4 53 116 60 194h-32v-121c0-31-8-49-39-48C34-167 62-67 57 0H25l-1-190h30c1 10-1 24 2 32 11-22 29-35 61-36" id="u"/><path fill="#333" d="M101-234c-31-9-42 10-38 44h38v23H63V0H32v-167H5v-23h27c-7-52 17-82 69-68v24" id="v"/><path fill="#333" d="M177-190C167-65 218 103 67 71c-23-6-38-20-44-43l32-5c15 47 100 32 89-28v-30C133-14 115 1 83 1 29 1 15-40 15-95c0-56 16-97 71-98 29-1 48 16 59 35 1-10 0-23 2-32h30zM94-22c36 0 50-32 50-73 0-42-14-75-50-75-39 0-46 34-46 75s6 73 46 73" id="w"/><g id="a"><use transform="matrix(0.07407407407407404,0,0,0.07407407407407404,0,0)" xlink:href="#i"/><use transform="matrix(0.07407407407407404,0,0,0.07407407407407404,24.59259259259258,0)" xlink:href="#j"/><use transform="matrix(0.07407407407407404,0,0,0.07407407407407404,39.40740740740739,0)" xlink:href="#k"/><use transform="matrix(0.07407407407407404,0,0,0.07407407407407404,54.2222222222222,0)" xlink:href="#l"/><use transform="matrix(0.07407407407407404,0,0,0.07407407407407404,71.99999999999997,0)" xlink:href="#j"/><use transform="matrix(0.07407407407407404,0,0,0.07407407407407404,86.81481481481478,0)" xlink:href="#m"/><use transform="matrix(0.07407407407407404,0,0,0.07407407407407404,100.14814814814811,0)" xlink:href="#n"/><use transform="matrix(0.07407407407407404,0,0,0.07407407407407404,114.96296296296292,0)" xlink:href="#o"/><use transform="matrix(0.07407407407407404,0,0,0.07407407407407404,123.77777777777773,0)" xlink:href="#p"/><use transform="matrix(0.07407407407407404,0,0,0.07407407407407404,129.6296296296296,0)" xlink:href="#q"/><use transform="matrix(0.07407407407407404,0,0,0.07407407407407404,137.03703703703698,0)" xlink:href="#r"/><use transform="matrix(0.07407407407407404,0,0,0.07407407407407404,150.3703703703703,0)" xlink:href="#s"/><use transform="matrix(0.07407407407407404,0,0,0.07407407407407404,169.5555555555555,0)" xlink:href="#t"/><use transform="matrix(0.07407407407407404,0,0,0.07407407407407404,184.3703703703703,0)" xlink:href="#u"/><use transform="matrix(0.07407407407407404,0,0,0.07407407407407404,199.1851851851851,0)" xlink:href="#v"/><use transform="matrix(0.07407407407407404,0,0,0.07407407407407404,206.5925925925925,0)" xlink:href="#p"/><use transform="matrix(0.07407407407407404,0,0,0.07407407407407404,212.44444444444434,0)" xlink:href="#w"/></g><path fill="#333" d="M205 0l-28-72H64L36 0H1l101-248h38L239 0h-34zm-38-99l-47-123c-12 45-31 82-46 123h93" id="x"/><path fill="#333" d="M106-169C34-169 62-67 57 0H25v-261h32l-1 103c12-21 28-36 61-36 89 0 53 116 60 194h-32v-121c2-32-8-49-39-48" id="y"/><path fill="#333" d="M141-36C126-15 110 5 73 4 37 3 15-17 15-53c-1-64 63-63 125-63 3-35-9-54-41-54-24 1-41 7-42 31l-33-3c5-37 33-52 76-52 45 0 72 20 72 64v82c-1 20 7 32 28 27v20c-31 9-61-2-59-35zM48-53c0 20 12 33 32 33 41-3 63-29 60-74-43 2-92-5-92 41" id="z"/><path fill="#333" d="M240 0l2-218c-23 76-54 145-80 218h-23L58-218 59 0H30v-248h44l77 211c21-75 51-140 76-211h43V0h-30" id="A"/><g id="b"><use transform="matrix(0.07407407407407404,0,0,0.07407407407407404,0,0)" xlink:href="#x"/><use transform="matrix(0.07407407407407404,0,0,0.07407407407407404,17.77777777777777,0)" xlink:href="#n"/><use transform="matrix(0.07407407407407404,0,0,0.07407407407407404,32.59259259259258,0)" xlink:href="#q"/><use transform="matrix(0.07407407407407404,0,0,0.07407407407407404,39.999999999999986,0)" xlink:href="#y"/><use transform="matrix(0.07407407407407404,0,0,0.07407407407407404,54.81481481481479,0)" xlink:href="#j"/><use transform="matrix(0.07407407407407404,0,0,0.07407407407407404,69.6296296296296,0)" xlink:href="#u"/><use transform="matrix(0.07407407407407404,0,0,0.07407407407407404,84.44444444444441,0)" xlink:href="#q"/><use transform="matrix(0.07407407407407404,0,0,0.07407407407407404,91.85185185185182,0)" xlink:href="#p"/><use transform="matrix(0.07407407407407404,0,0,0.07407407407407404,97.70370370370367,0)" xlink:href="#m"/><use transform="matrix(0.07407407407407404,0,0,0.07407407407407404,111.037037037037,0)" xlink:href="#z"/><use transform="matrix(0.07407407407407404,0,0,0.07407407407407404,125.85185185185179,0)" xlink:href="#q"/><use transform="matrix(0.07407407407407404,0,0,0.07407407407407404,133.2592592592592,0)" xlink:href="#p"/><use transform="matrix(0.07407407407407404,0,0,0.07407407407407404,139.11111111111106,0)" xlink:href="#t"/><use transform="matrix(0.07407407407407404,0,0,0.07407407407407404,153.92592592592587,0)" xlink:href="#u"/><use transform="matrix(0.07407407407407404,0,0,0.07407407407407404,168.74074074074068,0)" xlink:href="#A"/><use transform="matrix(0.07407407407407404,0,0,0.07407407407407404,190.8888888888888,0)" xlink:href="#z"/><use transform="matrix(0.07407407407407404,0,0,0.07407407407407404,205.7037037037036,0)" xlink:href="#u"/><use transform="matrix(0.07407407407407404,0,0,0.07407407407407404,220.51851851851842,0)" xlink:href="#z"/><use transform="matrix(0.07407407407407404,0,0,0.07407407407407404,235.33333333333323,0)" xlink:href="#w"/><use transform="matrix(0.07407407407407404,0,0,0.07407407407407404,250.14814814814804,0)" xlink:href="#j"/><use transform="matrix(0.07407407407407404,0,0,0.07407407407407404,264.9629629629628,0)" xlink:href="#o"/></g><path fill="#333" d="M30-248c87 1 191-15 191 75 0 78-77 80-158 76V0H30v-248zm33 125c57 0 124 11 124-50 0-59-68-47-124-48v98" id="B"/><path fill="#333" d="M108 0H70L1-190h34L89-25l56-165h34" id="C"/><path fill="#333" d="M85-194c31 0 48 13 60 33l-1-100h32l1 261h-30c-2-10 0-23-3-31C134-8 116 4 85 4 32 4 16-35 15-94c0-66 23-100 70-100zm9 24c-40 0-46 34-46 75 0 40 6 74 45 74 42 0 51-32 51-76 0-42-9-74-50-73" id="D"/><g id="c"><use transform="matrix(0.07407407407407404,0,0,0.07407407407407404,0,0)" xlink:href="#x"/><use transform="matrix(0.07407407407407404,0,0,0.07407407407407404,17.77777777777777,0)" xlink:href="#n"/><use transform="matrix(0.07407407407407404,0,0,0.07407407407407404,32.59259259259258,0)" xlink:href="#q"/><use transform="matrix(0.07407407407407404,0,0,0.07407407407407404,39.999999999999986,0)" xlink:href="#y"/><use transform="matrix(0.07407407407407404,0,0,0.07407407407407404,54.81481481481479,0)" xlink:href="#j"/><use transform="matrix(0.07407407407407404,0,0,0.07407407407407404,69.6296296296296,0)" xlink:href="#u"/><use transform="matrix(0.07407407407407404,0,0,0.07407407407407404,84.44444444444441,0)" xlink:href="#q"/><use transform="matrix(0.07407407407407404,0,0,0.07407407407407404,91.85185185185182,0)" xlink:href="#p"/><use transform="matrix(0.07407407407407404,0,0,0.07407407407407404,97.70370370370367,0)" xlink:href="#m"/><use transform="matrix(0.07407407407407404,0,0,0.07407407407407404,111.037037037037,0)" xlink:href="#z"/><use transform="matrix(0.07407407407407404,0,0,0.07407407407407404,125.85185185185179,0)" xlink:href="#q"/><use transform="matrix(0.07407407407407404,0,0,0.07407407407407404,133.2592592592592,0)" xlink:href="#p"/><use transform="matrix(0.07407407407407404,0,0,0.07407407407407404,139.11111111111106,0)" xlink:href="#t"/><use transform="matrix(0.07407407407407404,0,0,0.07407407407407404,153.92592592592587,0)" xlink:href="#u"/><use transform="matrix(0.07407407407407404,0,0,0.07407407407407404,168.74074074074068,0)" xlink:href="#B"/><use transform="matrix(0.07407407407407404,0,0,0.07407407407407404,186.51851851851845,0)" xlink:href="#o"/><use transform="matrix(0.07407407407407404,0,0,0.07407407407407404,195.33333333333326,0)" xlink:href="#t"/><use transform="matrix(0.07407407407407404,0,0,0.07407407407407404,210.14814814814807,0)" xlink:href="#C"/><use transform="matrix(0.07407407407407404,0,0,0.07407407407407404,223.48148148148138,0)" xlink:href="#p"/><use transform="matrix(0.07407407407407404,0,0,0.07407407407407404,229.33333333333323,0)" xlink:href="#D"/><use transform="matrix(0.07407407407407404,0,0,0.07407407407407404,244.14814814814804,0)" xlink:href="#j"/><use transform="matrix(0.07407407407407404,0,0,0.07407407407407404,258.9629629629628,0)" xlink:href="#o"/></g><path fill="#333" d="M1147-745C1147-274 901 1 436 0H135v-1462h342c429-3 670 280 670 717zm-825-558v1143h96c355 0 532-193 532-579 0-376-164-564-493-564H322" id="E"/><path fill="#333" d="M596-1118c288 2 430 92 430 366V0H895l-37-152h-8C752-34 680 17 483 20 272 23 135-98 135-307c0-221 170-337 510-348l203-7c15-197-55-305-244-305-98 0-207 27-328 82l-63-137c131-64 258-96 383-96zm-72 991c194 0 325-116 322-311v-99c-251 15-522-6-522 232 0 119 67 178 200 178" id="F"/><path fill="#333" d="M1112-551c0 331-186 571-502 571-301 0-495-251-495-571 0-330 184-567 501-567 302 0 496 249 496 567zM614-131c207 0 310-140 310-420 0-277-104-416-312-416-206 0-309 139-309 416 0 280 104 420 311 420" id="G"/><path fill="#333" d="M1004 0L860-453H369L223 0H33l483-1468h195L1196 0h-192zM807-618c-63-210-144-435-195-650-51 232-127 431-190 650h385" id="H"/><path fill="#333" d="M578-131c239 0 309-137 309-397v-570h182V0H922l-27-147h-10C815-36 704 20 551 20c-261 0-391-134-391-401v-717h182v707c0 173 79 260 236 260" id="I"/><path fill="#333" d="M1020-150v138C933 9 849 20 768 20 527 20 406-95 406-324v-637H139v-94l267-49 77-287h105v293h438v137H588v637c0 130 64 195 192 195 62 0 142-7 240-21" id="J"/><path fill="#333" d="M887 0v-707c0-173-79-260-238-260-205 0-307 133-307 398V0H160v-1556h182c-2 202 6 416-8 606h10c69-112 181-168 336-168 259 0 389 134 389 401V0H887" id="K"/><path fill="#333" d="M631-1118c283 0 470 204 465 491v113H322c5 250 120 375 344 375 130 0 253-25 370-76v160C925-5 804 20 672 20c-329 0-539-224-539-561 0-331 182-577 498-577zM326-662h573c0-203-91-305-272-305-183 0-284 102-301 305" id="L"/><path fill="#333" d="M887 0v-707c0-173-79-260-238-260-205 0-307 133-307 398V0H160v-1098h147l27 148h10c69-112 181-168 336-168 259 0 389 134 389 401V0H887" id="M"/><path fill="#333" d="M739-1436c0 71-43 115-106 115-71 0-107-38-107-115 0-76 36-114 107-114s106 38 106 114zM541-954l-269-21v-123h451v955l352 20V0H197v-123l344-20v-811" id="N"/><path fill="#333" d="M172-543c0-365 197-575 553-575 119 0 231 20 336 59l-62 158c-100-38-189-57-268-57-247 0-371 138-371 413 0 271 120 406 361 406 105 0 212-21 321-62v160C953 0 843 20 713 20c-347 1-541-210-541-563" id="O"/><path fill="#333" d="M1094-1034c0 310-213 470-541 465H362V0H176v-1462h404c343 0 514 143 514 428zM532-727c244-1 369-71 369-297 0-186-113-279-338-279H362v576h170" id="P"/><path fill="#333" d="M442-897c93-139 173-221 377-221 79 0 159 15 240 45l-49 166c-82-30-157-45-224-45-221 0-340 134-340 360V0H264v-1098h148l22 201h8" id="Q"/><path fill="#333" d="M498 0L82-1098h188l240 652c57 154 90 262 100 325h6c67-256 244-708 340-977h189L729 0H498" id="R"/><path fill="#333" d="M137-547c0-322 136-571 430-571 137 0 245 53 322 160h12c-24-215-7-376-12-598h182V0H924l-27-147h-8C814-36 706 20 567 20c-294 0-430-246-430-567zm463 416c241 0 288-157 289-416 0-151-23-259-69-323s-121-97-222-97c-181 0-272 141-272 422 0 276 91 414 274 414" id="S"/><g id="d"><use transform="matrix(0.009114583333333334,0,0,0.009114583333333334,0,0)" xlink:href="#E"/><use transform="matrix(0.009114583333333334,0,0,0.009114583333333334,11.201822916666668,0)" xlink:href="#F"/><use transform="matrix(0.009114583333333334,0,0,0.009114583333333334,22.403645833333336,0)" xlink:href="#G"/><use transform="matrix(0.009114583333333334,0,0,0.009114583333333334,33.60546875,0)" xlink:href="#H"/><use transform="matrix(0.009114583333333334,0,0,0.009114583333333334,44.80729166666667,0)" xlink:href="#I"/><use transform="matrix(0.009114583333333334,0,0,0.009114583333333334,56.00911458333334,0)" xlink:href="#J"/><use transform="matrix(0.009114583333333334,0,0,0.009114583333333334,67.21093750000001,0)" xlink:href="#K"/><use transform="matrix(0.009114583333333334,0,0,0.009114583333333334,78.41276041666669,0)" xlink:href="#L"/><use transform="matrix(0.009114583333333334,0,0,0.009114583333333334,89.61458333333336,0)" xlink:href="#M"/><use transform="matrix(0.009114583333333334,0,0,0.009114583333333334,100.81640625000003,0)" xlink:href="#J"/><use transform="matrix(0.009114583333333334,0,0,0.009114583333333334,112.01822916666671,0)" xlink:href="#N"/><use transform="matrix(0.009114583333333334,0,0,0.009114583333333334,123.22005208333337,0)" xlink:href="#O"/><use transform="matrix(0.009114583333333334,0,0,0.009114583333333334,134.42187500000003,0)" xlink:href="#F"/><use transform="matrix(0.009114583333333334,0,0,0.009114583333333334,145.62369791666669,0)" xlink:href="#J"/><use transform="matrix(0.009114583333333334,0,0,0.009114583333333334,156.82552083333334,0)" xlink:href="#N"/><use transform="matrix(0.009114583333333334,0,0,0.009114583333333334,168.02734375,0)" xlink:href="#G"/><use transform="matrix(0.009114583333333334,0,0,0.009114583333333334,179.22916666666666,0)" xlink:href="#M"/><use transform="matrix(0.009114583333333334,0,0,0.009114583333333334,190.43098958333331,0)" xlink:href="#P"/><use transform="matrix(0.009114583333333334,0,0,0.009114583333333334,201.63281249999997,0)" xlink:href="#Q"/><use transform="matrix(0.009114583333333334,0,0,0.009114583333333334,212.8346354166666,0)" xlink:href="#G"/><use transform="matrix(0.009114583333333334,0,0,0.009114583333333334,224.0364583333333,0)" xlink:href="#R"/><use transform="matrix(0.009114583333333334,0,0,0.009114583333333334,235.23828124999994,0)" xlink:href="#N"/><use transform="matrix(0.009114583333333334,0,0,0.009114583333333334,246.44010416666663,0)" xlink:href="#S"/><use transform="matrix(0.009114583333333334,0,0,0.009114583333333334,257.64192708333326,0)" xlink:href="#L"/><use transform="matrix(0.009114583333333334,0,0,0.009114583333333334,268.84374999999994,0)" xlink:href="#Q"/></g><path fill="#333" d="M1137-424C1137-153 941 0 662 0H135v-1462c284 7 685-30 837 88 80 62 124 152 124 282 0 179-125 297-291 316v10c221 36 332 150 332 342zm-232-655c0-182-120-224-319-224H322v461h284c195-2 299-53 299-237zM322-686v528h307c207 0 311-91 311-274 0-169-108-254-324-254H322" id="T"/><path fill="#333" d="M326-731c0 353 139 584 471 588 87 0 196-19 327-58v162c-97 39-217 59-358 59-433-1-637-301-637-753 0-438 243-750 668-750 147 0 274 29 383 86l-78 156c-103-52-204-78-305-78-307 1-471 259-471 588" id="U"/><path fill="#333" d="M82-1098h188l262 654c55 137 84 233 89 290h6c15-75 45-172 90-292l239-652h189L670 143c-45 116-99 201-156 261-87 92-259 104-414 71V330c92 17 226 18 286-29 67-53 115-195 153-291" id="V"/><path fill="#333" d="M1092-551c0 322-136 571-430 571-138 0-245-53-322-159h-12c24 220 7 402 12 631H158v-1590h147l27 148h8c73-112 181-168 322-168 294 0 430 246 430 567zM629-967c-241 0-288 156-289 416 0 151 24 259 70 323s120 97 221 97c181 0 272-141 272-422 0-276-91-414-274-414" id="W"/><path fill="#333" d="M1026-301c0 225-197 321-448 321-165 0-290-23-375-69v-166c129 57 252 86 370 86 183 0 275-54 275-162 0-38-16-71-49-99s-108-63-226-106c-156-57-253-112-293-160s-61-105-61-171c2-338 524-340 789-217l-60 149c-121-48-228-72-319-72-157 0-236 44-236 133 0 41 17 74 51 98s111 57 232 101c141 51 234 101 280 151s70 111 70 183" id="X"/><path fill="#333" d="M813 0c-67-308-137-613-199-926h-6C551-608 477-306 408 0H219L-4-1098h162c53 313 118 604 155 936h6c53-329 132-625 201-936h193c63 300 147 629 194 936h6c45-366 103-603 162-936h158L1008 0H813" id="Y"/><path fill="#333" d="M1059 0H217v-1462h842v164H403v452h617v162H403v520h656V0" id="Z"/><g id="e"><use transform="matrix(0.009114583333333334,0,0,0.009114583333333334,0,0)" xlink:href="#T"/><use transform="matrix(0.009114583333333334,0,0,0.009114583333333334,11.201822916666668,0)" xlink:href="#U"/><use transform="matrix(0.009114583333333334,0,0,0.009114583333333334,22.403645833333336,0)" xlink:href="#Q"/><use transform="matrix(0.009114583333333334,0,0,0.009114583333333334,33.60546875,0)" xlink:href="#V"/><use transform="matrix(0.009114583333333334,0,0,0.009114583333333334,44.80729166666667,0)" xlink:href="#W"/><use transform="matrix(0.009114583333333334,0,0,0.009114583333333334,56.00911458333334,0)" xlink:href="#J"/><use transform="matrix(0.009114583333333334,0,0,0.009114583333333334,67.21093750000001,0)" xlink:href="#P"/><use transform="matrix(0.009114583333333334,0,0,0.009114583333333334,78.41276041666669,0)" xlink:href="#F"/><use transform="matrix(0.009114583333333334,0,0,0.009114583333333334,89.61458333333336,0)" xlink:href="#X"/><use transform="matrix(0.009114583333333334,0,0,0.009114583333333334,100.81640625000003,0)" xlink:href="#X"/><use transform="matrix(0.009114583333333334,0,0,0.009114583333333334,112.01822916666671,0)" xlink:href="#Y"/><use transform="matrix(0.009114583333333334,0,0,0.009114583333333334,123.22005208333337,0)" xlink:href="#G"/><use transform="matrix(0.009114583333333334,0,0,0.009114583333333334,134.42187500000003,0)" xlink:href="#Q"/><use transform="matrix(0.009114583333333334,0,0,0.009114583333333334,145.62369791666669,0)" xlink:href="#S"/><use transform="matrix(0.009114583333333334,0,0,0.009114583333333334,156.82552083333334,0)" xlink:href="#Z"/><use transform="matrix(0.009114583333333334,0,0,0.009114583333333334,168.02734375,0)" xlink:href="#M"/><use transform="matrix(0.009114583333333334,0,0,0.009114583333333334,179.22916666666666,0)" xlink:href="#O"/><use transform="matrix(0.009114583333333334,0,0,0.009114583333333334,190.43098958333331,0)" xlink:href="#G"/><use transform="matrix(0.009114583333333334,0,0,0.009114583333333334,201.63281249999997,0)" xlink:href="#S"/><use transform="matrix(0.009114583333333334,0,0,0.009114583333333334,212.8346354166666,0)" xlink:href="#L"/><use transform="matrix(0.009114583333333334,0,0,0.009114583333333334,224.0364583333333,0)" xlink:href="#Q"/></g><path fill="#333" d="M232-93c-1 65-40 97-104 97C67 4 28-28 28-90v-158h33c8 89-33 224 67 224 102 0 64-133 71-224h33v155" id="aa"/><path fill="#333" d="M135-143c-3-34-86-38-87 0 15 53 115 12 119 90S17 21 10-45l28-5c4 36 97 45 98 0-10-56-113-15-118-90-4-57 82-63 122-42 12 7 21 19 24 35" id="ab"/><path fill="#333" d="M30-248c118-7 216 8 213 122C240-48 200 0 122 0H30v-248zM63-27c89 8 146-16 146-99s-60-101-146-95v194" id="ac"/><path fill="#333" d="M24 0v-261h32V0H24" id="ad"/><g id="f"><use transform="matrix(0.07407407407407404,0,0,0.07407407407407404,0,0)" xlink:href="#aa"/><use transform="matrix(0.07407407407407404,0,0,0.07407407407407404,19.185185185185176,0)" xlink:href="#ab"/><use transform="matrix(0.07407407407407404,0,0,0.07407407407407404,32.518518518518505,0)" xlink:href="#j"/><use transform="matrix(0.07407407407407404,0,0,0.07407407407407404,47.333333333333314,0)" xlink:href="#o"/><use transform="matrix(0.07407407407407404,0,0,0.07407407407407404,56.148148148148124,0)" xlink:href="#ac"/><use transform="matrix(0.07407407407407404,0,0,0.07407407407407404,75.3333333333333,0)" xlink:href="#j"/><use transform="matrix(0.07407407407407404,0,0,0.07407407407407404,90.14814814814811,0)" xlink:href="#q"/><use transform="matrix(0.07407407407407404,0,0,0.07407407407407404,97.55555555555551,0)" xlink:href="#z"/><use transform="matrix(0.07407407407407404,0,0,0.07407407407407404,112.37037037037032,0)" xlink:href="#p"/><use transform="matrix(0.07407407407407404,0,0,0.07407407407407404,118.22222222222217,0)" xlink:href="#ad"/><use transform="matrix(0.07407407407407404,0,0,0.07407407407407404,124.07407407407402,0)" xlink:href="#ab"/><use transform="matrix(0.07407407407407404,0,0,0.07407407407407404,137.40740740740733,0)" xlink:href="#l"/><use transform="matrix(0.07407407407407404,0,0,0.07407407407407404,155.1851851851851,0)" xlink:href="#j"/><use transform="matrix(0.07407407407407404,0,0,0.07407407407407404,169.99999999999991,0)" xlink:href="#o"/><use transform="matrix(0.07407407407407404,0,0,0.07407407407407404,178.81481481481472,0)" xlink:href="#C"/><use transform="matrix(0.07407407407407404,0,0,0.07407407407407404,192.14814814814804,0)" xlink:href="#p"/><use transform="matrix(0.07407407407407404,0,0,0.07407407407407404,197.9999999999999,0)" xlink:href="#m"/><use transform="matrix(0.07407407407407404,0,0,0.07407407407407404,211.3333333333332,0)" xlink:href="#j"/></g><path fill="#333" d="M1104-516c1 337-164 537-496 536-322 0-483-180-483-540v-942h186v932c0 258 102 387 307 387 197 0 300-130 300-389v-932h186v948" id="ae"/><path fill="#333" d="M532-1413l-268-21v-122h451v1413l352 20V0H188v-123l344-20v-1270" id="af"/><path fill="#333" d="M1087-391c0 281-226 411-532 411-177 0-315-23-414-69v-178c141 57 279 86 414 86 233 0 350-80 350-240 0-69-24-123-71-160s-142-82-285-133c-139-49-239-106-299-174s-90-156-90-264c2-252 211-371 481-371 153 0 291 26 416 78l-64 164c-129-52-249-78-360-78-195 0-293 70-293 209 0 68 22 123 66 164s134 85 270 133c164 58 273 119 328 181s83 143 83 241" id="ag"/><g id="g"><use transform="matrix(0.009114583333333334,0,0,0.009114583333333334,0,0)" xlink:href="#E"/><use transform="matrix(0.009114583333333334,0,0,0.009114583333333334,11.201822916666668,0)" xlink:href="#ae"/><use transform="matrix(0.009114583333333334,0,0,0.009114583333333334,22.403645833333336,0)" xlink:href="#X"/><use transform="matrix(0.009114583333333334,0,0,0.009114583333333334,33.60546875,0)" xlink:href="#L"/><use transform="matrix(0.009114583333333334,0,0,0.009114583333333334,44.80729166666667,0)" xlink:href="#Q"/><use transform="matrix(0.009114583333333334,0,0,0.009114583333333334,56.00911458333334,0)" xlink:href="#E"/><use transform="matrix(0.009114583333333334,0,0,0.009114583333333334,67.21093750000001,0)" xlink:href="#L"/><use transform="matrix(0.009114583333333334,0,0,0.009114583333333334,78.41276041666669,0)" xlink:href="#J"/><use transform="matrix(0.009114583333333334,0,0,0.009114583333333334,89.61458333333336,0)" xlink:href="#F"/><use transform="matrix(0.009114583333333334,0,0,0.009114583333333334,100.81640625000003,0)" xlink:href="#N"/><use transform="matrix(0.009114583333333334,0,0,0.009114583333333334,112.01822916666671,0)" xlink:href="#af"/><use transform="matrix(0.009114583333333334,0,0,0.009114583333333334,123.22005208333337,0)" xlink:href="#X"/><use transform="matrix(0.009114583333333334,0,0,0.009114583333333334,134.42187500000003,0)" xlink:href="#ag"/><use transform="matrix(0.009114583333333334,0,0,0.009114583333333334,145.62369791666669,0)" xlink:href="#L"/><use transform="matrix(0.009114583333333334,0,0,0.009114583333333334,156.82552083333334,0)" xlink:href="#Q"/><use transform="matrix(0.009114583333333334,0,0,0.009114583333333334,168.02734375,0)" xlink:href="#R"/><use transform="matrix(0.009114583333333334,0,0,0.009114583333333334,179.22916666666666,0)" xlink:href="#N"/><use transform="matrix(0.009114583333333334,0,0,0.009114583333333334,190.43098958333331,0)" xlink:href="#O"/><use transform="matrix(0.009114583333333334,0,0,0.009114583333333334,201.63281249999997,0)" xlink:href="#L"/></g><g id="h"><use transform="matrix(0.07407407407407404,0,0,0.07407407407407404,0,0)" xlink:href="#ac"/><use transform="matrix(0.07407407407407404,0,0,0.07407407407407404,19.185185185185176,0)" xlink:href="#aa"/><use transform="matrix(0.07407407407407404,0,0,0.07407407407407404,38.37037037037035,0)" xlink:href="#ab"/><use transform="matrix(0.07407407407407404,0,0,0.07407407407407404,51.70370370370368,0)" xlink:href="#j"/><use transform="matrix(0.07407407407407404,0,0,0.07407407407407404,66.51851851851849,0)" xlink:href="#o"/></g></defs></g></svg>