<svg xmlns="http://www.w3.org/2000/svg" xmlns:xlink="http://www.w3.org/1999/xlink" xmlns:lucid="lucid" width="1240" height="814.08"><g transform="translate(-315.43307086614163 -160)" lucid:page-tab-id="bucHylERHLXV"><path d="M465.43 726c0-3.3 2.7-6 6-6h148c3.32 0 6 2.7 6 6v48c0 3.3-2.68 6-6 6h-148c-3.3 0-6-2.7-6-6z" stroke="#b2b2b2" stroke-width="3" fill="#fff"/><use xlink:href="#a" transform="matrix(1,0,0,1,473.43307086614163,728) translate(34.33333333333335 27.333333333333332)"/><path d="M375.43 531.92c0-3.32 2.7-6 6-6h328c3.32 0 6 2.68 6 6v88c0 3.3-2.68 6-6 6h-328c-3.3 0-6-2.7-6-6z" stroke="#b2b2b2" stroke-width="3" fill="#fff"/><use xlink:href="#b" transform="matrix(1,0,0,1,380.43307086614163,530.9173228346456) translate(15.629629629629733 49.45833333333333)"/><path d="M755.43 186c0-3.3 2.7-6 6-6h348c3.32 0 6 2.7 6 6v119c0 3.3-2.68 6-6 6h-348c-3.3 0-6-2.7-6-6z" stroke="#b2b2b2" stroke-width="3" fill="#fff"/><use xlink:href="#c" transform="matrix(1,0,0,1,763.4330708661416,188) translate(35.11111111111117 62.83333333333333)"/><path d="M935.4 313.5v.8l-.1 1.75-.2 1.73-.25 1.7-.32 1.7-.4 1.7-.47 1.68-.55 1.7-.63 1.7-.72 1.73-.83 1.75-.32.6m-11.63 15.34l-.03.03-2.6 2.42-3 2.6-3.48 2.76-4.13 3-4.92 3.26-5.94 3.6-7.33 4.02-.3.16m-17.5 8.22l-3.46 1.54-16.44 6.5-16.26 5.62m-18.4 5.9l-37.07 11.02m-18.6 5.34l-37.18 10.57m-18.6 5.3l-37.2 10.56m-18.45 5.73l-17.03 5.9-16.45 6.5-2.72 1.2m-17.5 8.2l-1.05.5-7.33 4.03-5.95 3.6-4.92 3.26-4.12 3-3.5 2.76-2.98 2.58-2.03 1.9m-11.86 15.18l-.7 1.33-.82 1.75-.73 1.73-.64 1.7-.55 1.7-.46 1.7-.4 1.68-.32 1.7-.26 1.7-.18 1.74-.1 1.73" stroke="#b2b2b2" stroke-width="2" fill="none"/><path d="M936.4 313.55l-2-.04.03-1h2" fill="#b2b2b2"/><path d="M538.85 503.73l6.93 18.75 13.1-15.1" stroke="#b2b2b2" stroke-width="2" fill="none"/><use xlink:href="#d" transform="matrix(1,0,0,1,703.4931704191315,385.2251129217548) translate(0 14.222222222222223)"/><path d="M1195.43 531.92c0-3.32 2.7-6 6-6h328c3.32 0 6 2.68 6 6v88c0 3.3-2.68 6-6 6h-328c-3.3 0-6-2.7-6-6z" stroke="#b2b2b2" stroke-width="3" fill="#fff"/><use xlink:href="#e" transform="matrix(1,0,0,1,1200.4330708661416,530.9173228346456) translate(22.333333333333428 49.45833333333333)"/><path d="M935.45 313.5l.02.63.1 1.6.16 1.57.23 1.56.3 1.56.36 1.55.44 1.55.5 1.56.6 1.57.66 1.6.76 1.62.87 1.65.97 1.7m13.74 15.52l.85.73 3.3 2.6 3.88 2.82 4.63 3.07 5.6 3.38 6.9 3.78 8.62 4.27 1.8.8m19.22 8.05l5.07 2 21.4 7.42 13 3.9m19.95 5.96l2.3.7 37.95 10.04m20.14 5.33l40.27 10.66m20.15 5.33l40.28 10.64m20.13 5.33l13.9 3.68 21.4 7.42 4.3 1.7m19.24 8l2.54 1.14 8.64 4.3 6.88 3.77 5.6 3.38 4.63 3.07 3.87 2.82 3.3 2.6.2.2m13.93 15.38l.44.68.98 1.7.86 1.65.77 1.62.67 1.6.58 1.57.5 1.56.44 1.55.37 1.55.3 1.55.23 1.57.17 1.57.1 1.4" stroke="#b2b2b2" stroke-width="2" fill="none"/><path d="M936.45 313.5l-2 .05-.02-1.05h2" fill="#b2b2b2"/><path d="M1351.7 507.6l13.35 14.9 6.62-18.88" stroke="#b2b2b2" stroke-width="2" fill="none"/><use xlink:href="#d" transform="matrix(1,0,0,1,1099.3124038440972,386.39940213511767) translate(0 14.222222222222223)"/><path d="M835.43 726c0-3.3 2.7-6 6-6h188c3.32 0 6 2.7 6 6v119c0 3.3-2.68 6-6 6h-188c-3.3 0-6-2.7-6-6z" stroke="#b2b2b2" stroke-width="3" fill="#fff"/><use xlink:href="#f" transform="matrix(1,0,0,1,843.4330708661416,728) translate(5.000000000000043 62.83333333333333)"/><path d="M717.94 575.94l16.74.35 2.48.14m19.18 1.4l11.76 1.23 15.18 2.24 11.1 2.12m18.7 4.4l8.76 2.43 10.63 3.45 9.66 3.6 7.28 3.05m17.26 8.47l6.06 3.5 6.03 3.82 5.52 3.84 5.05 3.83 4.65 3.85 3.9 3.5m13 14.13l1.37 1.72 2.86 3.93 2.64 3.97 2.44 4.02 2.24 4.08 2.05 4.14 1.88 4.22 1.7 4.32 1.13 3.2m4.6 18.66l.27 1.63.66 5.22.46 5.44.24 5.7v1.14" stroke="#b2b2b2" stroke-width="2" fill="none"/><path d="M717.98 574.94l-.04 2-1-.02v-2" fill="#b2b2b2"/><path d="M924.2 699.92l11.12 16.62 9.2-17.76" stroke="#b2b2b2" stroke-width="2" fill="none"/><path d="M1192.93 575.94l-21.8.44m-21.8.94l-15.93 1-23.38 2.43-4.1.6m-21.53 3.42l-11.27 2.15-14.7 3.43-12.76 3.56-3.63 1.2m-20.5 7.4l-5.66 2.38-7.8 3.66-7 3.66-6.3 3.64-5.7 3.62-5.2 3.6-.5.37m-16.47 14.25l-3.14 3.35-3.13 3.63-2.9 3.65-2.68 3.7-2.48 3.75-2.3 3.8-2.13 3.87-1.96 3.95-1.8 4.05-1.04 2.6M937.47 695l-.63 3.74-.67 5.27-.46 5.56-.23 5.87-.02 1.25" stroke="#b2b2b2" stroke-width="2" fill="none"/><path d="M1193.93 576.92l-1 .02-.05-2 1.05-.02" fill="#b2b2b2"/><path d="M926.3 698.8l9.24 17.74 11.1-16.65" stroke="#b2b2b2" stroke-width="2" fill="none"/><path d="M546.43 716.68h-2v-29.42h2m0-32.18h-2v-26.66h2" fill="#b2b2b2"/><path d="M546.43 628.44h-2v-1.02h2M556.47 699.83l-11.04 18.67-11.04-18.67 1.7-1.02 9.33 15.77 9.32-15.76" fill="#b2b2b2"/><use xlink:href="#g" transform="matrix(1,0,0,1,498.050354816759,655.0839102741622) translate(0 14.222222222222223)"/><path d="M335.43 880.08c0-3.3 2.7-6 6-6h398c3.32 0 6 2.7 6 6v68c0 3.32-2.68 6-6 6h-398c-3.3 0-6-2.68-6-6z" stroke="#b2b2b2" stroke-width="3" fill="#fff"/><use xlink:href="#h" transform="matrix(1,0,0,1,343.43307086614163,882.0826771653544) translate(0.9680989583332575 38.46223958333333)"/><path d="M431.1 870.76h-2v-20.2h2m0-35.9h-2V790h2m0-20.2h-2V729.4h2m0-20.2h-2v-40.4h2m0-20.18h-2v-20.2h2" fill="#b2b2b2"/><path d="M431.1 628.45h-2v-1.03h2M430.1 868.65l9.32-15.76 1.72 1-11.04 18.68-11.04-18.67 1.72-1" fill="#b2b2b2"/><use xlink:href="#i" transform="matrix(1,0,0,1,362.5935646933021,814.6666666666667) translate(0 14.222222222222223)"/><defs><path fill="#333" d="M30-248c118-7 216 8 213 122C240-48 200 0 122 0H30v-248zM63-27c89 8 146-16 146-99s-60-101-146-95v194" id="j"/><path fill="#333" d="M232-93c-1 65-40 97-104 97C67 4 28-28 28-90v-158h33c8 89-33 224 67 224 102 0 64-133 71-224h33v155" id="k"/><path fill="#333" d="M135-143c-3-34-86-38-87 0 15 53 115 12 119 90S17 21 10-45l28-5c4 36 97 45 98 0-10-56-113-15-118-90-4-57 82-63 122-42 12 7 21 19 24 35" id="l"/><path fill="#333" d="M100-194c63 0 86 42 84 106H49c0 40 14 67 53 68 26 1 43-12 49-29l28 8c-11 28-37 45-77 45C44 4 14-33 15-96c1-61 26-98 85-98zm52 81c6-60-76-77-97-28-3 7-6 17-6 28h103" id="m"/><path fill="#333" d="M114-163C36-179 61-72 57 0H25l-1-190h30c1 12-1 29 2 39 6-27 23-49 58-41v29" id="n"/><g id="a"><use transform="matrix(0.07407407407407404,0,0,0.07407407407407404,0,0)" xlink:href="#j"/><use transform="matrix(0.07407407407407404,0,0,0.07407407407407404,19.185185185185176,0)" xlink:href="#k"/><use transform="matrix(0.07407407407407404,0,0,0.07407407407407404,38.37037037037035,0)" xlink:href="#l"/><use transform="matrix(0.07407407407407404,0,0,0.07407407407407404,51.70370370370368,0)" xlink:href="#m"/><use transform="matrix(0.07407407407407404,0,0,0.07407407407407404,66.51851851851849,0)" xlink:href="#n"/></g><path fill="#333" d="M127-220V0H93v-220H8v-28h204v28h-85" id="o"/><path fill="#333" d="M100-194c62-1 85 37 85 99 1 63-27 99-86 99S16-35 15-95c0-66 28-99 85-99zM99-20c44 1 53-31 53-75 0-43-8-75-51-75s-53 32-53 75 10 74 51 75" id="p"/><path fill="#333" d="M143 0L79-87 56-68V0H24v-261h32v163l83-92h37l-77 82L181 0h-38" id="q"/><path fill="#333" d="M117-194c89-4 53 116 60 194h-32v-121c0-31-8-49-39-48C34-167 62-67 57 0H25l-1-190h30c1 10-1 24 2 32 11-22 29-35 61-36" id="r"/><path fill="#333" d="M205 0l-28-72H64L36 0H1l101-248h38L239 0h-34zm-38-99l-47-123c-12 45-31 82-46 123h93" id="s"/><path fill="#333" d="M84 4C-5 8 30-112 23-190h32v120c0 31 7 50 39 49 72-2 45-101 50-169h31l1 190h-30c-1-10 1-25-2-33-11 22-28 36-60 37" id="t"/><path fill="#333" d="M59-47c-2 24 18 29 38 22v24C64 9 27 4 27-40v-127H5v-23h24l9-43h21v43h35v23H59v120" id="u"/><path fill="#333" d="M106-169C34-169 62-67 57 0H25v-261h32l-1 103c12-21 28-36 61-36 89 0 53 116 60 194h-32v-121c2-32-8-49-39-48" id="v"/><path fill="#333" d="M24-231v-30h32v30H24zM24 0v-190h32V0H24" id="w"/><path fill="#333" d="M96-169c-40 0-48 33-48 73s9 75 48 75c24 0 41-14 43-38l32 2c-6 37-31 61-74 61-59 0-76-41-82-99-10-93 101-131 147-64 4 7 5 14 7 22l-32 3c-4-21-16-35-41-35" id="x"/><path fill="#333" d="M141-36C126-15 110 5 73 4 37 3 15-17 15-53c-1-64 63-63 125-63 3-35-9-54-41-54-24 1-41 7-42 31l-33-3c5-37 33-52 76-52 45 0 72 20 72 64v82c-1 20 7 32 28 27v20c-31 9-61-2-59-35zM48-53c0 20 12 33 32 33 41-3 63-29 60-74-43 2-92-5-92 41" id="y"/><path fill="#333" d="M63-220v92h138v28H63V0H30v-248h175v28H63" id="z"/><path fill="#333" d="M24 0v-261h32V0H24" id="A"/><g id="b"><use transform="matrix(0.07407407407407404,0,0,0.07407407407407404,0,0)" xlink:href="#o"/><use transform="matrix(0.07407407407407404,0,0,0.07407407407407404,13.25925925925925,0)" xlink:href="#p"/><use transform="matrix(0.07407407407407404,0,0,0.07407407407407404,28.074074074074062,0)" xlink:href="#q"/><use transform="matrix(0.07407407407407404,0,0,0.07407407407407404,41.40740740740739,0)" xlink:href="#m"/><use transform="matrix(0.07407407407407404,0,0,0.07407407407407404,56.2222222222222,0)" xlink:href="#r"/><use transform="matrix(0.07407407407407404,0,0,0.07407407407407404,71.03703703703701,0)" xlink:href="#s"/><use transform="matrix(0.07407407407407404,0,0,0.07407407407407404,88.81481481481478,0)" xlink:href="#t"/><use transform="matrix(0.07407407407407404,0,0,0.07407407407407404,103.62962962962959,0)" xlink:href="#u"/><use transform="matrix(0.07407407407407404,0,0,0.07407407407407404,111.037037037037,0)" xlink:href="#v"/><use transform="matrix(0.07407407407407404,0,0,0.07407407407407404,125.85185185185179,0)" xlink:href="#m"/><use transform="matrix(0.07407407407407404,0,0,0.07407407407407404,140.6666666666666,0)" xlink:href="#r"/><use transform="matrix(0.07407407407407404,0,0,0.07407407407407404,155.4814814814814,0)" xlink:href="#u"/><use transform="matrix(0.07407407407407404,0,0,0.07407407407407404,162.88888888888877,0)" xlink:href="#w"/><use transform="matrix(0.07407407407407404,0,0,0.07407407407407404,168.74074074074065,0)" xlink:href="#x"/><use transform="matrix(0.07407407407407404,0,0,0.07407407407407404,182.07407407407396,0)" xlink:href="#y"/><use transform="matrix(0.07407407407407404,0,0,0.07407407407407404,196.88888888888877,0)" xlink:href="#u"/><use transform="matrix(0.07407407407407404,0,0,0.07407407407407404,204.29629629629616,0)" xlink:href="#w"/><use transform="matrix(0.07407407407407404,0,0,0.07407407407407404,210.148148148148,0)" xlink:href="#p"/><use transform="matrix(0.07407407407407404,0,0,0.07407407407407404,224.96296296296282,0)" xlink:href="#r"/><use transform="matrix(0.07407407407407404,0,0,0.07407407407407404,239.77777777777763,0)" xlink:href="#z"/><use transform="matrix(0.07407407407407404,0,0,0.07407407407407404,255.99999999999983,0)" xlink:href="#w"/><use transform="matrix(0.07407407407407404,0,0,0.07407407407407404,261.8518518518517,0)" xlink:href="#A"/><use transform="matrix(0.07407407407407404,0,0,0.07407407407407404,267.7037037037035,0)" xlink:href="#u"/><use transform="matrix(0.07407407407407404,0,0,0.07407407407407404,275.1111111111109,0)" xlink:href="#m"/><use transform="matrix(0.07407407407407404,0,0,0.07407407407407404,289.9259259259257,0)" xlink:href="#n"/></g><path fill="#333" d="M240 0l2-218c-23 76-54 145-80 218h-23L58-218 59 0H30v-248h44l77 211c21-75 51-140 76-211h43V0h-30" id="B"/><path fill="#333" d="M177-190C167-65 218 103 67 71c-23-6-38-20-44-43l32-5c15 47 100 32 89-28v-30C133-14 115 1 83 1 29 1 15-40 15-95c0-56 16-97 71-98 29-1 48 16 59 35 1-10 0-23 2-32h30zM94-22c36 0 50-32 50-73 0-42-14-75-50-75-39 0-46 34-46 75s6 73 46 73" id="C"/><g id="c"><use transform="matrix(0.07407407407407404,0,0,0.07407407407407404,0,0)" xlink:href="#s"/><use transform="matrix(0.07407407407407404,0,0,0.07407407407407404,17.77777777777777,0)" xlink:href="#t"/><use transform="matrix(0.07407407407407404,0,0,0.07407407407407404,32.59259259259258,0)" xlink:href="#u"/><use transform="matrix(0.07407407407407404,0,0,0.07407407407407404,39.999999999999986,0)" xlink:href="#v"/><use transform="matrix(0.07407407407407404,0,0,0.07407407407407404,54.81481481481479,0)" xlink:href="#m"/><use transform="matrix(0.07407407407407404,0,0,0.07407407407407404,69.6296296296296,0)" xlink:href="#r"/><use transform="matrix(0.07407407407407404,0,0,0.07407407407407404,84.44444444444441,0)" xlink:href="#u"/><use transform="matrix(0.07407407407407404,0,0,0.07407407407407404,91.85185185185182,0)" xlink:href="#w"/><use transform="matrix(0.07407407407407404,0,0,0.07407407407407404,97.70370370370367,0)" xlink:href="#x"/><use transform="matrix(0.07407407407407404,0,0,0.07407407407407404,111.037037037037,0)" xlink:href="#y"/><use transform="matrix(0.07407407407407404,0,0,0.07407407407407404,125.85185185185179,0)" xlink:href="#u"/><use transform="matrix(0.07407407407407404,0,0,0.07407407407407404,133.2592592592592,0)" xlink:href="#w"/><use transform="matrix(0.07407407407407404,0,0,0.07407407407407404,139.11111111111106,0)" xlink:href="#p"/><use transform="matrix(0.07407407407407404,0,0,0.07407407407407404,153.92592592592587,0)" xlink:href="#r"/><use transform="matrix(0.07407407407407404,0,0,0.07407407407407404,168.74074074074068,0)" xlink:href="#B"/><use transform="matrix(0.07407407407407404,0,0,0.07407407407407404,190.8888888888888,0)" xlink:href="#y"/><use transform="matrix(0.07407407407407404,0,0,0.07407407407407404,205.7037037037036,0)" xlink:href="#r"/><use transform="matrix(0.07407407407407404,0,0,0.07407407407407404,220.51851851851842,0)" xlink:href="#y"/><use transform="matrix(0.07407407407407404,0,0,0.07407407407407404,235.33333333333323,0)" xlink:href="#C"/><use transform="matrix(0.07407407407407404,0,0,0.07407407407407404,250.14814814814804,0)" xlink:href="#m"/><use transform="matrix(0.07407407407407404,0,0,0.07407407407407404,264.9629629629628,0)" xlink:href="#n"/></g><path fill="#333" d="M15-91v-56l181-69v40L49-119l147 57v40" id="D"/><path fill="#333" d="M25-224v-37h50v37H25zM25 0v-190h50V0H25" id="E"/><path fill="#333" d="M135-194c87-1 58 113 63 194h-50c-7-57 23-157-34-157-59 0-34 97-39 157H25l-1-190h47c2 12-1 28 3 38 12-26 28-41 61-42" id="F"/><path fill="#333" d="M25-224v-37h50v37H25zM75 22c2 45-34 59-81 51V38c22 5 31-5 31-27v-201h50V22" id="G"/><path fill="#333" d="M185-48c-13 30-37 53-82 52C43 2 14-33 14-96s30-98 90-98c62 0 83 45 84 108H66c0 31 8 55 39 56 18 0 30-7 34-22zm-45-69c5-46-57-63-70-21-2 6-4 13-4 21h74" id="H"/><path fill="#333" d="M190-63c-7 42-38 67-86 67-59 0-84-38-90-98-12-110 154-137 174-36l-49 2c-2-19-15-32-35-32-30 0-35 28-38 64-6 74 65 87 74 30" id="I"/><path fill="#333" d="M115-3C79 11 28 4 28-45v-112H4v-33h27l15-45h31v45h36v33H77v99c-1 23 16 31 38 25v30" id="J"/><path fill="#333" d="M88-194c31-1 46 15 58 34l-1-101h50l1 261h-48c-2-10 0-23-3-31C134-8 116 4 84 4 32 4 16-41 15-95c0-56 19-97 73-99zm17 164c33 0 40-30 41-66 1-37-9-64-41-64s-38 30-39 65c0 43 13 65 39 65" id="K"/><path fill="#333" d="M15-22v-40l146-57-146-57v-40l181 69v56" id="L"/><g id="d"><use transform="matrix(0.04938271604938272,0,0,0.04938271604938272,0,0)" xlink:href="#D"/><use transform="matrix(0.04938271604938272,0,0,0.04938271604938272,10.370370370370372,0)" xlink:href="#E"/><use transform="matrix(0.04938271604938272,0,0,0.04938271604938272,15.308641975308642,0)" xlink:href="#F"/><use transform="matrix(0.04938271604938272,0,0,0.04938271604938272,26.12345679012346,0)" xlink:href="#G"/><use transform="matrix(0.04938271604938272,0,0,0.04938271604938272,31.06172839506173,0)" xlink:href="#H"/><use transform="matrix(0.04938271604938272,0,0,0.04938271604938272,40.93827160493828,0)" xlink:href="#I"/><use transform="matrix(0.04938271604938272,0,0,0.04938271604938272,50.81481481481482,0)" xlink:href="#J"/><use transform="matrix(0.04938271604938272,0,0,0.04938271604938272,56.69135802469136,0)" xlink:href="#H"/><use transform="matrix(0.04938271604938272,0,0,0.04938271604938272,66.56790123456791,0)" xlink:href="#K"/><use transform="matrix(0.04938271604938272,0,0,0.04938271604938272,77.38271604938272,0)" xlink:href="#L"/></g><path fill="#333" d="M9 0v-24l116-142H16v-24h144v24L44-24h123V0H9" id="M"/><g id="e"><use transform="matrix(0.07407407407407404,0,0,0.07407407407407404,0,0)" xlink:href="#o"/><use transform="matrix(0.07407407407407404,0,0,0.07407407407407404,13.25925925925925,0)" xlink:href="#p"/><use transform="matrix(0.07407407407407404,0,0,0.07407407407407404,28.074074074074062,0)" xlink:href="#q"/><use transform="matrix(0.07407407407407404,0,0,0.07407407407407404,41.40740740740739,0)" xlink:href="#m"/><use transform="matrix(0.07407407407407404,0,0,0.07407407407407404,56.2222222222222,0)" xlink:href="#r"/><use transform="matrix(0.07407407407407404,0,0,0.07407407407407404,71.03703703703701,0)" xlink:href="#s"/><use transform="matrix(0.07407407407407404,0,0,0.07407407407407404,88.81481481481478,0)" xlink:href="#t"/><use transform="matrix(0.07407407407407404,0,0,0.07407407407407404,103.62962962962959,0)" xlink:href="#u"/><use transform="matrix(0.07407407407407404,0,0,0.07407407407407404,111.037037037037,0)" xlink:href="#v"/><use transform="matrix(0.07407407407407404,0,0,0.07407407407407404,125.85185185185179,0)" xlink:href="#p"/><use transform="matrix(0.07407407407407404,0,0,0.07407407407407404,140.6666666666666,0)" xlink:href="#n"/><use transform="matrix(0.07407407407407404,0,0,0.07407407407407404,149.4814814814814,0)" xlink:href="#w"/><use transform="matrix(0.07407407407407404,0,0,0.07407407407407404,155.33333333333326,0)" xlink:href="#M"/><use transform="matrix(0.07407407407407404,0,0,0.07407407407407404,168.66666666666657,0)" xlink:href="#y"/><use transform="matrix(0.07407407407407404,0,0,0.07407407407407404,183.48148148148138,0)" xlink:href="#u"/><use transform="matrix(0.07407407407407404,0,0,0.07407407407407404,190.88888888888877,0)" xlink:href="#w"/><use transform="matrix(0.07407407407407404,0,0,0.07407407407407404,196.74074074074062,0)" xlink:href="#p"/><use transform="matrix(0.07407407407407404,0,0,0.07407407407407404,211.55555555555543,0)" xlink:href="#r"/><use transform="matrix(0.07407407407407404,0,0,0.07407407407407404,226.37037037037024,0)" xlink:href="#z"/><use transform="matrix(0.07407407407407404,0,0,0.07407407407407404,242.59259259259247,0)" xlink:href="#w"/><use transform="matrix(0.07407407407407404,0,0,0.07407407407407404,248.44444444444426,0)" xlink:href="#A"/><use transform="matrix(0.07407407407407404,0,0,0.07407407407407404,254.2962962962961,0)" xlink:href="#u"/><use transform="matrix(0.07407407407407404,0,0,0.07407407407407404,261.7037037037035,0)" xlink:href="#m"/><use transform="matrix(0.07407407407407404,0,0,0.07407407407407404,276.5185185185183,0)" xlink:href="#n"/></g><path fill="#333" d="M137 0h-34L2-248h35l83 218 83-218h36" id="N"/><path fill="#333" d="M85-194c31 0 48 13 60 33l-1-100h32l1 261h-30c-2-10 0-23-3-31C134-8 116 4 85 4 32 4 16-35 15-94c0-66 23-100 70-100zm9 24c-40 0-46 34-46 75 0 40 6 74 45 74 42 0 51-32 51-76 0-42-9-74-50-73" id="O"/><g id="f"><use transform="matrix(0.07407407407407404,0,0,0.07407407407407404,0,0)" xlink:href="#o"/><use transform="matrix(0.07407407407407404,0,0,0.07407407407407404,13.25925925925925,0)" xlink:href="#p"/><use transform="matrix(0.07407407407407404,0,0,0.07407407407407404,28.074074074074062,0)" xlink:href="#q"/><use transform="matrix(0.07407407407407404,0,0,0.07407407407407404,41.40740740740739,0)" xlink:href="#m"/><use transform="matrix(0.07407407407407404,0,0,0.07407407407407404,56.2222222222222,0)" xlink:href="#r"/><use transform="matrix(0.07407407407407404,0,0,0.07407407407407404,71.03703703703701,0)" xlink:href="#N"/><use transform="matrix(0.07407407407407404,0,0,0.07407407407407404,86.81481481481478,0)" xlink:href="#y"/><use transform="matrix(0.07407407407407404,0,0,0.07407407407407404,101.62962962962959,0)" xlink:href="#A"/><use transform="matrix(0.07407407407407404,0,0,0.07407407407407404,107.48148148148144,0)" xlink:href="#w"/><use transform="matrix(0.07407407407407404,0,0,0.07407407407407404,113.33333333333329,0)" xlink:href="#O"/><use transform="matrix(0.07407407407407404,0,0,0.07407407407407404,128.1481481481481,0)" xlink:href="#y"/><use transform="matrix(0.07407407407407404,0,0,0.07407407407407404,142.9629629629629,0)" xlink:href="#u"/><use transform="matrix(0.07407407407407404,0,0,0.07407407407407404,150.3703703703703,0)" xlink:href="#p"/><use transform="matrix(0.07407407407407404,0,0,0.07407407407407404,165.1851851851851,0)" xlink:href="#n"/></g><path fill="#333" d="M135-150c-39-12-60 13-60 57V0H25l-1-190h47c2 13-1 29 3 40 6-28 27-53 61-41v41" id="P"/><path fill="#333" d="M128 0H69L1-190h53L99-40l48-150h52" id="Q"/><path fill="#333" d="M137-138c1-29-70-34-71-4 15 46 118 7 119 86 1 83-164 76-172 9l43-7c4 19 20 25 44 25 33 8 57-30 24-41C81-84 22-81 20-136c-2-80 154-74 161-7" id="R"/><g id="g"><use transform="matrix(0.04938271604938272,0,0,0.04938271604938272,0,0)" xlink:href="#D"/><use transform="matrix(0.04938271604938272,0,0,0.04938271604938272,10.370370370370372,0)" xlink:href="#P"/><use transform="matrix(0.04938271604938272,0,0,0.04938271604938272,17.283950617283953,0)" xlink:href="#H"/><use transform="matrix(0.04938271604938272,0,0,0.04938271604938272,27.160493827160497,0)" xlink:href="#J"/><use transform="matrix(0.04938271604938272,0,0,0.04938271604938272,33.03703703703704,0)" xlink:href="#P"/><use transform="matrix(0.04938271604938272,0,0,0.04938271604938272,39.95061728395062,0)" xlink:href="#E"/><use transform="matrix(0.04938271604938272,0,0,0.04938271604938272,44.88888888888889,0)" xlink:href="#H"/><use transform="matrix(0.04938271604938272,0,0,0.04938271604938272,54.76543209876544,0)" xlink:href="#Q"/><use transform="matrix(0.04938271604938272,0,0,0.04938271604938272,64.64197530864197,0)" xlink:href="#H"/><use transform="matrix(0.04938271604938272,0,0,0.04938271604938272,74.51851851851852,0)" xlink:href="#R"/><use transform="matrix(0.04938271604938272,0,0,0.04938271604938272,84.39506172839506,0)" xlink:href="#L"/></g><path fill="#333" d="M1104-516c1 337-164 537-496 536-322 0-483-180-483-540v-942h186v932c0 258 102 387 307 387 197 0 300-130 300-389v-932h186v948" id="S"/><path fill="#333" d="M1026-301c0 225-197 321-448 321-165 0-290-23-375-69v-166c129 57 252 86 370 86 183 0 275-54 275-162 0-38-16-71-49-99s-108-63-226-106c-156-57-253-112-293-160s-61-105-61-171c2-338 524-340 789-217l-60 149c-121-48-228-72-319-72-157 0-236 44-236 133 0 41 17 74 51 98s111 57 232 101c141 51 234 101 280 151s70 111 70 183" id="T"/><path fill="#333" d="M631-1118c283 0 470 204 465 491v113H322c5 250 120 375 344 375 130 0 253-25 370-76v160C925-5 804 20 672 20c-329 0-539-224-539-561 0-331 182-577 498-577zM326-662h573c0-203-91-305-272-305-183 0-284 102-301 305" id="U"/><path fill="#333" d="M442-897c93-139 173-221 377-221 79 0 159 15 240 45l-49 166c-82-30-157-45-224-45-221 0-340 134-340 360V0H264v-1098h148l22 201h8" id="V"/><path fill="#333" d="M887 0v-707c0-173-79-260-238-260-205 0-307 133-307 398V0H160v-1098h147l27 148h10c69-112 181-168 336-168 259 0 389 134 389 401V0H887" id="W"/><path fill="#333" d="M596-1118c288 2 430 92 430 366V0H895l-37-152h-8C752-34 680 17 483 20 272 23 135-98 135-307c0-221 170-337 510-348l203-7c15-197-55-305-244-305-98 0-207 27-328 82l-63-137c131-64 258-96 383-96zm-72 991c194 0 325-116 322-311v-99c-251 15-522-6-522 232 0 119 67 178 200 178" id="X"/><path fill="#333" d="M977 0v-707c0-97-9-165-27-203s-47-57-88-57c-58 0-100 28-126 83s-40 148-40 278V0H535v-707c0-173-42-260-125-260-56 0-96 26-120 79s-36 160-36 319V0H92v-1098h127l27 148h10c45-112 112-168 201-168 109 0 180 61 213 182h6c51-121 124-182 219-182 85 0 147 30 186 92s58 165 58 309V0H977" id="Y"/><path fill="#333" d="M1094-1034c0 310-213 470-541 465H362V0H176v-1462h404c343 0 514 143 514 428zM532-727c244-1 369-71 369-297 0-186-113-279-338-279H362v576h170" id="Z"/><path fill="#333" d="M813 0c-67-308-137-613-199-926h-6C551-608 477-306 408 0H219L-4-1098h162c53 313 118 604 155 936h6c53-329 132-625 201-936h193c63 300 147 629 194 936h6c45-366 103-603 162-936h158L1008 0H813" id="aa"/><path fill="#333" d="M1112-551c0 331-186 571-502 571-301 0-495-251-495-571 0-330 184-567 501-567 302 0 496 249 496 567zM614-131c207 0 310-140 310-420 0-277-104-416-312-416-206 0-309 139-309 416 0 280 104 420 311 420" id="ab"/><path fill="#333" d="M137-547c0-322 136-571 430-571 137 0 245 53 322 160h12c-24-215-7-376-12-598h182V0H924l-27-147h-8C814-36 706 20 567 20c-294 0-430-246-430-567zm463 416c241 0 288-157 289-416 0-151-23-259-69-323s-121-97-222-97c-181 0-272 141-272 422 0 276 91 414 274 414" id="ac"/><path fill="#333" d="M1004 0L860-453H369L223 0H33l483-1468h195L1196 0h-192zM807-618c-63-210-144-435-195-650-51 232-127 431-190 650h385" id="ad"/><path fill="#333" d="M578-131c239 0 309-137 309-397v-570h182V0H922l-27-147h-10C815-36 704 20 551 20c-261 0-391-134-391-401v-717h182v707c0 173 79 260 236 260" id="ae"/><path fill="#333" d="M1020-150v138C933 9 849 20 768 20 527 20 406-95 406-324v-637H139v-94l267-49 77-287h105v293h438v137H588v637c0 130 64 195 192 195 62 0 142-7 240-21" id="af"/><path fill="#333" d="M887 0v-707c0-173-79-260-238-260-205 0-307 133-307 398V0H160v-1556h182c-2 202 6 416-8 606h10c69-112 181-168 336-168 259 0 389 134 389 401V0H887" id="ag"/><path fill="#333" d="M739-1436c0 71-43 115-106 115-71 0-107-38-107-115 0-76 36-114 107-114s106 38 106 114zM541-954l-269-21v-123h451v955l352 20V0H197v-123l344-20v-811" id="ah"/><path fill="#333" d="M172-543c0-365 197-575 553-575 119 0 231 20 336 59l-62 158c-100-38-189-57-268-57-247 0-371 138-371 413 0 271 120 406 361 406 105 0 212-21 321-62v160C953 0 843 20 713 20c-347 1-541-210-541-563" id="ai"/><path fill="#333" d="M707 0H520v-1298H102v-164h1022v164H707V0" id="aj"/><path fill="#333" d="M383-553l135-152 395-393h222L641-623 1163 0H950L524-504l-129 82V0H215v-1556h180c-3 337 9 689-16 1003h4" id="ak"/><g id="h"><use transform="matrix(0.009114583333333334,0,0,0.009114583333333334,0,0)" xlink:href="#S"/><use transform="matrix(0.009114583333333334,0,0,0.009114583333333334,11.201822916666668,0)" xlink:href="#T"/><use transform="matrix(0.009114583333333334,0,0,0.009114583333333334,22.403645833333336,0)" xlink:href="#U"/><use transform="matrix(0.009114583333333334,0,0,0.009114583333333334,33.60546875,0)" xlink:href="#V"/><use transform="matrix(0.009114583333333334,0,0,0.009114583333333334,44.80729166666667,0)" xlink:href="#W"/><use transform="matrix(0.009114583333333334,0,0,0.009114583333333334,56.00911458333334,0)" xlink:href="#X"/><use transform="matrix(0.009114583333333334,0,0,0.009114583333333334,67.21093750000001,0)" xlink:href="#Y"/><use transform="matrix(0.009114583333333334,0,0,0.009114583333333334,78.41276041666669,0)" xlink:href="#U"/><use transform="matrix(0.009114583333333334,0,0,0.009114583333333334,89.61458333333336,0)" xlink:href="#Z"/><use transform="matrix(0.009114583333333334,0,0,0.009114583333333334,100.81640625000003,0)" xlink:href="#X"/><use transform="matrix(0.009114583333333334,0,0,0.009114583333333334,112.01822916666671,0)" xlink:href="#T"/><use transform="matrix(0.009114583333333334,0,0,0.009114583333333334,123.22005208333337,0)" xlink:href="#T"/><use transform="matrix(0.009114583333333334,0,0,0.009114583333333334,134.42187500000003,0)" xlink:href="#aa"/><use transform="matrix(0.009114583333333334,0,0,0.009114583333333334,145.62369791666669,0)" xlink:href="#ab"/><use transform="matrix(0.009114583333333334,0,0,0.009114583333333334,156.82552083333334,0)" xlink:href="#V"/><use transform="matrix(0.009114583333333334,0,0,0.009114583333333334,168.02734375,0)" xlink:href="#ac"/><use transform="matrix(0.009114583333333334,0,0,0.009114583333333334,179.22916666666666,0)" xlink:href="#ad"/><use transform="matrix(0.009114583333333334,0,0,0.009114583333333334,190.43098958333331,0)" xlink:href="#ae"/><use transform="matrix(0.009114583333333334,0,0,0.009114583333333334,201.63281249999997,0)" xlink:href="#af"/><use transform="matrix(0.009114583333333334,0,0,0.009114583333333334,212.8346354166666,0)" xlink:href="#ag"/><use transform="matrix(0.009114583333333334,0,0,0.009114583333333334,224.0364583333333,0)" xlink:href="#U"/><use transform="matrix(0.009114583333333334,0,0,0.009114583333333334,235.23828124999994,0)" xlink:href="#W"/><use transform="matrix(0.009114583333333334,0,0,0.009114583333333334,246.44010416666663,0)" xlink:href="#af"/><use transform="matrix(0.009114583333333334,0,0,0.009114583333333334,257.64192708333326,0)" xlink:href="#ah"/><use transform="matrix(0.009114583333333334,0,0,0.009114583333333334,268.84374999999994,0)" xlink:href="#ai"/><use transform="matrix(0.009114583333333334,0,0,0.009114583333333334,280.04557291666663,0)" xlink:href="#X"/><use transform="matrix(0.009114583333333334,0,0,0.009114583333333334,291.2473958333333,0)" xlink:href="#af"/><use transform="matrix(0.009114583333333334,0,0,0.009114583333333334,302.44921875,0)" xlink:href="#ah"/><use transform="matrix(0.009114583333333334,0,0,0.009114583333333334,313.6510416666667,0)" xlink:href="#ab"/><use transform="matrix(0.009114583333333334,0,0,0.009114583333333334,324.85286458333337,0)" xlink:href="#W"/><use transform="matrix(0.009114583333333334,0,0,0.009114583333333334,336.0546875000001,0)" xlink:href="#aj"/><use transform="matrix(0.009114583333333334,0,0,0.009114583333333334,347.25651041666674,0)" xlink:href="#ab"/><use transform="matrix(0.009114583333333334,0,0,0.009114583333333334,358.4583333333334,0)" xlink:href="#ak"/><use transform="matrix(0.009114583333333334,0,0,0.009114583333333334,369.6601562500001,0)" xlink:href="#U"/><use transform="matrix(0.009114583333333334,0,0,0.009114583333333334,380.8619791666668,0)" xlink:href="#W"/></g><path fill="#333" d="M133-34C117-15 103 5 69 4 32 3 11-16 11-54c-1-60 55-63 116-61 1-26-3-47-28-47-18 1-26 9-28 27l-52-2c7-38 36-58 82-57s74 22 75 68l1 82c-1 14 12 18 25 15v27c-30 8-71 5-69-32zm-48 3c29 0 43-24 42-57-32 0-66-3-65 30 0 17 8 27 23 27" id="al"/><path fill="#333" d="M85 4C-2 5 27-109 22-190h50c7 57-23 150 33 157 60-5 35-97 40-157h50l1 190h-47c-2-12 1-28-3-38-12 25-28 42-61 42" id="am"/><path fill="#333" d="M114-157C55-157 80-60 75 0H25v-261h50l-1 109c12-26 28-41 61-42 86-1 58 113 63 194h-50c-7-57 23-157-34-157" id="an"/><g id="i"><use transform="matrix(0.04938271604938272,0,0,0.04938271604938272,0,0)" xlink:href="#D"/><use transform="matrix(0.04938271604938272,0,0,0.04938271604938272,10.370370370370372,0)" xlink:href="#al"/><use transform="matrix(0.04938271604938272,0,0,0.04938271604938272,20.24691358024692,0)" xlink:href="#am"/><use transform="matrix(0.04938271604938272,0,0,0.04938271604938272,31.061728395061735,0)" xlink:href="#J"/><use transform="matrix(0.04938271604938272,0,0,0.04938271604938272,36.93827160493828,0)" xlink:href="#an"/><use transform="matrix(0.04938271604938272,0,0,0.04938271604938272,47.753086419753096,0)" xlink:href="#H"/><use transform="matrix(0.04938271604938272,0,0,0.04938271604938272,57.62962962962965,0)" xlink:href="#F"/><use transform="matrix(0.04938271604938272,0,0,0.04938271604938272,68.44444444444446,0)" xlink:href="#J"/><use transform="matrix(0.04938271604938272,0,0,0.04938271604938272,74.320987654321,0)" xlink:href="#E"/><use transform="matrix(0.04938271604938272,0,0,0.04938271604938272,79.25925925925927,0)" xlink:href="#I"/><use transform="matrix(0.04938271604938272,0,0,0.04938271604938272,89.13580246913581,0)" xlink:href="#al"/><use transform="matrix(0.04938271604938272,0,0,0.04938271604938272,99.01234567901236,0)" xlink:href="#J"/><use transform="matrix(0.04938271604938272,0,0,0.04938271604938272,104.8888888888889,0)" xlink:href="#H"/><use transform="matrix(0.04938271604938272,0,0,0.04938271604938272,114.76543209876544,0)" xlink:href="#R"/><use transform="matrix(0.04938271604938272,0,0,0.04938271604938272,124.64197530864199,0)" xlink:href="#L"/></g></defs></g></svg>