<svg xmlns="http://www.w3.org/2000/svg" xmlns:xlink="http://www.w3.org/1999/xlink" xmlns:lucid="lucid" width="1330" height="920"><g transform="translate(-270.43307086614163 -220)" lucid:page-tab-id="AsbHE9ifKJ~x"><path d="M730.43 246c0-3.3 2.7-6 6-6h268c3.32 0 6 2.7 6 6v229c0 3.3-2.68 6-6 6h-268c-3.3 0-6-2.7-6-6z" stroke="#b2b2b2" stroke-width="3" fill="#fff"/><path d="M730.43 342.13h280" stroke="#b2b2b2" stroke-width="3" fill="none"/><use xlink:href="#a" transform="matrix(1,0,0,1,738.4330708661416,248.0000000000001) translate(43.97500000000001 14.833333333333337)"/><use xlink:href="#b" transform="matrix(1,0,0,1,738.4330708661416,248.0000000000001) translate(80.24104938271606 43.544444444444444)"/><use xlink:href="#c" transform="matrix(1,0,0,1,738.4330708661416,248.0000000000001) translate(38.74783950617285 75.8111111111111)"/><use xlink:href="#d" transform="matrix(1,0,0,1,742.4330708661416,350.13333333333344) translate(103.3703703703704 34.83333333333336)"/><use xlink:href="#e" transform="matrix(1,0,0,1,742.4330708661416,350.13333333333344) translate(18.51851851851859 66.83333333333333)"/><use xlink:href="#f" transform="matrix(1,0,0,1,742.4330708661416,350.13333333333344) translate(117.66666666666667 98.83333333333331)"/><path d="M290.43 546c0-3.3 2.7-6 6-6h348c3.32 0 6 2.7 6 6v335c0 3.3-2.68 6-6 6h-348c-3.3 0-6-2.7-6-6z" stroke="#b2b2b2" stroke-width="3" fill="#fff"/><path d="M290.43 588h360m-360 229.5h360" stroke="#b2b2b2" stroke-width="3" fill="none"/><use xlink:href="#g" transform="matrix(1,0,0,1,298.43307086614163,548) translate(64.11111111111117 21.333333333333332)"/><use xlink:href="#h" transform="matrix(1,0,0,1,302.43307086614163,596) translate(0 32.33333333333334)"/><use xlink:href="#i" transform="matrix(1,0,0,1,302.43307086614163,596) translate(0 64.33333333333334)"/><use xlink:href="#j" transform="matrix(1,0,0,1,302.43307086614163,596) translate(0 96.33333333333333)"/><use xlink:href="#k" transform="matrix(1,0,0,1,302.43307086614163,596) translate(0 128.33333333333331)"/><use xlink:href="#l" transform="matrix(1,0,0,1,302.43307086614163,596) translate(0 160.33333333333331)"/><use xlink:href="#m" transform="matrix(1,0,0,1,302.43307086614163,596) translate(0 192.33333333333331)"/><use xlink:href="#n" transform="matrix(1,0,0,1,302.43307086614163,825.5) translate(0 32.33333333333333)"/><path d="M470.45 537.5l.13-6.28.44-6.96.7-6.67.95-6.44 1.18-6.2 1.4-6.02 1.64-5.83 1.84-5.68 2.07-5.55 2.3-5.44 2.5-5.33 2.75-5.25 2.98-5.18 3.25-5.1 3.5-5.07 3.82-5 4.12-5 4.46-4.95 4.83-4.93 5.25-4.9 5.67-4.9 6.16-4.88 6.7-4.86 7.26-4.83 7.93-4.8 8.63-4.74 9.42-4.66 10.27-4.57 11.18-4.43 12.2-4.24 13.22-4 14.3-3.66 15.4-3.27 16.44-2.78 17.38-2.2 18.14-1.52 3.6-.15" stroke="#b2b2b2" stroke-width="2" fill="none"/><path d="M471.45 537.5l-.02 1h-2l.02-1.05" fill="#b2b2b2"/><path d="M726.97 360.56l-21.13 13.36-.76-25.44z" stroke="#b2b2b2" stroke-width="2" fill="#fff"/><path d="M1130.43 537.8c0-3.3 2.7-6 6-6h348c3.32 0 6 2.7 6 6v357c0 3.3-2.68 6-6 6h-348c-3.3 0-6-2.7-6-6z" stroke="#b2b2b2" stroke-width="3" fill="#fff"/><path d="M1130.43 601.4h360m-360 229.5h360" stroke="#b2b2b2" stroke-width="3" fill="none"/><use xlink:href="#o" transform="matrix(1,0,0,1,1138.4330708661416,539.8001921229588) translate(116.3 14.600000000000003)"/><use xlink:href="#p" transform="matrix(1,0,0,1,1138.4330708661416,539.8001921229588) translate(47.629629629629676 43.13333333333333)"/><use xlink:href="#q" transform="matrix(1,0,0,1,1138.4330708661416,539.8001921229588) translate(152.74074074074076 43.13333333333333)"/><use xlink:href="#r" transform="matrix(1,0,0,1,1142.4330708661416,609.4001921229589) translate(0 32.33333333333334)"/><use xlink:href="#s" transform="matrix(1,0,0,1,1142.4330708661416,609.4001921229589) translate(0 64.33333333333334)"/><use xlink:href="#t" transform="matrix(1,0,0,1,1142.4330708661416,609.4001921229589) translate(0 96.33333333333333)"/><use xlink:href="#u" transform="matrix(1,0,0,1,1142.4330708661416,609.4001921229589) translate(0 128.33333333333331)"/><use xlink:href="#v" transform="matrix(1,0,0,1,1142.4330708661416,609.4001921229589) translate(0 160.33333333333331)"/><use xlink:href="#w" transform="matrix(1,0,0,1,1142.4330708661416,609.4001921229589) translate(0 192.33333333333331)"/><use xlink:href="#n" transform="matrix(1,0,0,1,1142.4330708661416,838.9001921229589) translate(0 32.33333333333333)"/><path d="M1310.4 529.3l-.12-6.15-.42-6.74-.67-6.4-.9-6.1-1.12-5.82-1.3-5.6-1.52-5.38-1.7-5.2-1.87-5.06-2.07-4.9-2.25-4.8-2.45-4.68-2.66-4.6-2.87-4.53-3.1-4.46-3.36-4.42-3.62-4.38-3.92-4.35-4.25-4.33-4.6-4.34-5-4.32-5.48-4.33-5.98-4.33-6.57-4.36-7.22-4.36-7.98-4.4-8.88-4.4-9.9-4.4-11.1-4.4-12.52-4.34-14.18-4.28-16.16-4.14-18.5-3.92-21.27-3.6-24.5-3.07-28.3-2.37-25.7-1.07" stroke="#b2b2b2" stroke-width="2" fill="none"/><path d="M1311.43 530.3h-2l-.02-1 2-.05" fill="#b2b2b2"/><path d="M1013.9 360.54l21.75-12.32-.48 25.45z" stroke="#b2b2b2" stroke-width="2" fill="#fff"/><path d="M652.94 669.33h457.5" stroke="#b2b2b2" stroke-width="2" fill="none"/><path d="M652.97 670.33h-1.04v-2h1.04" fill="#b2b2b2"/><path d="M1125.7 669.33l-14.27 4.64v-9.27z" stroke="#b2b2b2" stroke-width="2" fill="#b2b2b2"/><path d="M1127.93 768h-457.5" stroke="#b2b2b2" stroke-width="2" fill="none"/><path d="M1128.93 769h-1.03v-2h1.03" fill="#b2b2b2"/><path d="M655.17 768l14.26-4.64v9.28z" stroke="#b2b2b2" stroke-width="2" fill="#b2b2b2"/><path d="M1145.43 1017.5v-51.1c0-3.3 2.7-6 6-6h153c3.32 0 6-2.7 6-6v-27.62" stroke="#b2b2b2" stroke-width="2" fill="none"/><path d="M1146.43 1018.5h-2v-1.03h2" fill="#b2b2b2"/><path d="M1310.43 904.26l12.73 21.52h-25.45z" stroke="#b2b2b2" stroke-width="2" fill="#fff"/><path d="M1466.63 1017.5v-51.1c0-3.3-2.68-6-6-6h-144.2c-3.3 0-6-2.7-6-6v-27.62" stroke="#b2b2b2" stroke-width="2" fill="none"/><path d="M1467.63 1018.5h-2v-1.03h2" fill="#b2b2b2"/><path d="M1310.43 904.26l12.73 21.52h-25.45z" stroke="#b2b2b2" stroke-width="2" fill="#fff"/><path d="M1030.43 1026c0-3.3 2.7-6 6-6h218c3.32 0 6 2.7 6 6v88c0 3.3-2.68 6-6 6h-218c-3.3 0-6-2.7-6-6z" stroke="#b2b2b2" stroke-width="3" fill="#fff"/><g><use xlink:href="#x" transform="matrix(1,0,0,1,1038.4330708661416,1028) translate(7.950000000000003 29.6)"/><use xlink:href="#y" transform="matrix(1,0,0,1,1038.4330708661416,1028) translate(71.51851851851853 58.13333333333333)"/></g><path d="M1350.43 1026c0-3.3 2.7-6 6-6h218c3.32 0 6 2.7 6 6v88c0 3.3-2.68 6-6 6h-218c-3.3 0-6-2.7-6-6z" stroke="#b2b2b2" stroke-width="3" fill="#fff"/><g><use xlink:href="#z" transform="matrix(1,0,0,1,1358.4330708661416,1028) translate(7.950000000000003 29.6)"/><use xlink:href="#A" transform="matrix(1,0,0,1,1358.4330708661416,1028) translate(69.2962962962963 58.13333333333333)"/></g><path d="M1310.43 246c0-3.3 2.7-6 6-6h168c3.32 0 6 2.7 6 6v148c0 3.3-2.68 6-6 6h-168c-3.3 0-6-2.7-6-6z" stroke="#b2b2b2" stroke-width="3" fill="#fff"/><path d="M1310.43 288h180" stroke="#b2b2b2" stroke-width="3" fill="none"/><g><use xlink:href="#B" transform="matrix(1,0,0,1,1318.4330708661416,248) translate(45.000000000000014 21.333333333333332)"/></g><g><use xlink:href="#C" transform="matrix(1,0,0,1,1322.4330708661416,296) translate(0 37.333333333333336)"/><use xlink:href="#D" transform="matrix(1,0,0,1,1322.4330708661416,296) translate(0 69.33333333333333)"/></g><path d="M1307.93 320h-271.5" stroke="#b2b2b2" stroke-width="2" fill="none"/><path d="M1308.93 321h-1.03v-2h1.03" fill="#b2b2b2"/><path d="M1013.9 320l21.52-12.73v25.46z" stroke="#b2b2b2" stroke-width="2" fill="#fff"/><path d="M1398.43 529.3V420" stroke="#b2b2b2" stroke-width="2" fill="none"/><path d="M1399.43 530.3h-2v-1.03h2" fill="#b2b2b2"/><path d="M1398.43 404.74l4.64 14.26h-9.27z" stroke="#b2b2b2" stroke-width="2" fill="#b2b2b2"/><defs><path d="M204-261c85 0 136 45 136 128 0 61-22 110-78 115-28 2-39-18-37-44-13 22-31 44-66 44-40 0-58-27-58-68 0-60 30-105 88-108 29-1 43 15 54 32l7-28h27L250-56c-1 11 6 16 15 16 39 0 51-48 51-92 0-69-42-107-112-107-94 0-145 59-145 153 0 72 41 113 114 113 43 0 78-13 106-28l10 19c-30 18-68 32-116 32C85 50 34 0 34-86c0-107 62-175 170-175zM164-41c46 0 70-44 70-90 0-26-17-40-43-40-44 0-59 41-61 85-1 26 9 45 34 45" id="E"/><path d="M222 0l43-216c-8 16-17 34-26 49L143 0h-22L81-216 41 0H11l48-248h42l38 208 116-208h45L252 0h-30" id="F"/><path d="M165-48c-4 18 1 34 23 27l-3 20c-29 8-62 0-52-35h-2C116-14 99 4 63 4 30 4 8-16 8-49c0-68 71-67 138-67 10-26 0-56-31-54-26 1-42 9-47 31l-32-5c8-67 160-71 144 15-5 28-9 54-15 81zM42-50c3 52 80 24 89-6 7-12 7-24 11-38-47 1-103-4-100 44" id="G"/><path d="M67-162c32-53 139-36 121 50C175-51 163 2 97 4 68 4 52-11 42-31 38 6 28 39 22 75H-9l50-265h29c-1 10 0 20-3 28zm89 36c0-26-10-43-35-43-54 0-67 50-69 103-1 29 14 45 42 46 53 0 62-58 62-106" id="H"/><path d="M111-194c62-3 86 47 72 106H45c-7 38 6 69 45 68 27-1 43-14 53-32l24 11C152-15 129 4 87 4 38 3 12-23 12-71c0-70 32-119 99-123zm44 81c14-66-71-72-95-28-4 8-8 17-11 28h106" id="I"/><path d="M133-28C103 26-5 8 13-77c13-62 24-115 90-117 29-1 46 15 56 35l19-102h32L160 0h-30zM45-64c-2 27 10 43 35 43 54-1 69-50 69-103 0-29-15-46-42-46-53-1-58 58-62 106" id="J"/><path d="M194-120c59 52 2 134-86 124-53-6-90-18-98-63l31-7c8 30 29 43 70 43 46 0 84-17 71-62-32-43-135-20-137-98-3-89 178-90 191-16l-30 9c-8-48-127-53-127 5 0 53 81 35 115 65" id="K"/><path d="M67 3c-93-2-31-127-26-193h32L48-50c-3 39 53 32 70 12 30-34 30-101 43-152h32L157 0h-30c1-10 6-24 4-33-14 20-29 37-64 36" id="L"/><path d="M66-151c12-25 30-51 66-40l-6 26C45-176 58-65 38 0H6l36-190h30" id="M"/><path d="M125-24c46 0 70-25 89-51l25 16C214-24 183 4 123 4 8 4-5-146 60-208c32-50 158-61 191-5 5 7 9 14 11 22l-32 10c-9-28-33-43-69-43-74 0-108 51-108 125 0 46 24 75 72 75" id="N"/><path d="M6 0l50-261h32L37 0H6" id="O"/><path d="M55-144c13 50 104 24 104 88C159 21 15 23 1-39l26-10c6 40 102 42 102-4-13-50-104-23-104-87 0-71 143-71 148-8l-29 4c-5-35-85-37-89 0" id="P"/><g id="a"><use transform="matrix(0.05,0,0,0.05,0,0)" xlink:href="#E"/><use transform="matrix(0.05,0,0,0.05,18.25,0)" xlink:href="#F"/><use transform="matrix(0.05,0,0,0.05,33.2,0)" xlink:href="#G"/><use transform="matrix(0.05,0,0,0.05,43.2,0)" xlink:href="#H"/><use transform="matrix(0.05,0,0,0.05,53.2,0)" xlink:href="#H"/><use transform="matrix(0.05,0,0,0.05,63.2,0)" xlink:href="#I"/><use transform="matrix(0.05,0,0,0.05,73.2,0)" xlink:href="#J"/><use transform="matrix(0.05,0,0,0.05,83.2,0)" xlink:href="#K"/><use transform="matrix(0.05,0,0,0.05,95.2,0)" xlink:href="#L"/><use transform="matrix(0.05,0,0,0.05,105.2,0)" xlink:href="#H"/><use transform="matrix(0.05,0,0,0.05,115.2,0)" xlink:href="#I"/><use transform="matrix(0.05,0,0,0.05,125.2,0)" xlink:href="#M"/><use transform="matrix(0.05,0,0,0.05,131.15,0)" xlink:href="#N"/><use transform="matrix(0.05,0,0,0.05,144.1,0)" xlink:href="#O"/><use transform="matrix(0.05,0,0,0.05,148.04999999999998,0)" xlink:href="#G"/><use transform="matrix(0.05,0,0,0.05,158.04999999999998,0)" xlink:href="#P"/><use transform="matrix(0.05,0,0,0.05,167.04999999999998,0)" xlink:href="#P"/></g><path d="M187 0l-14-72H61L19 0h-37l149-248h38L221 0h-34zm-19-99l-22-123L76-99h92" id="Q"/><path d="M68-162c25-46 127-43 121 31C183-60 169 1 98 4 69 5 53-11 43-31L36 0H5l52-261h31zm88 36c2-27-9-43-34-43-55 0-70 51-70 103 0 29 15 45 43 46 52 0 58-58 61-106" id="R"/><path d="M51-54c-9 22 5 41 31 30L79-1C43 14 10-4 19-52l22-115H19l5-23h22l19-43h21l-9 43h35l-4 23H73" id="S"/><path d="M44-68c0 29 11 47 38 47 30 0 42-19 51-41l28 9C148-21 126 4 82 4 31 4 10-29 12-85c3-77 74-140 146-93 12 8 15 23 18 40l-31 5c-1-22-13-36-36-36-52 0-65 49-65 101" id="T"/><g id="b"><use transform="matrix(0.07469135802469135,0,0,0.07469135802469135,5.000000000000001,0)" xlink:href="#Q"/><use transform="matrix(0.07469135802469135,0,0,0.07469135802469135,22.925925925925924,0)" xlink:href="#R"/><use transform="matrix(0.07469135802469135,0,0,0.07469135802469135,37.86419753086419,0)" xlink:href="#P"/><use transform="matrix(0.07469135802469135,0,0,0.07469135802469135,51.30864197530864,0)" xlink:href="#S"/><use transform="matrix(0.07469135802469135,0,0,0.07469135802469135,58.777777777777764,0)" xlink:href="#M"/><use transform="matrix(0.07469135802469135,0,0,0.07469135802469135,67.66604938271604,0)" xlink:href="#G"/><use transform="matrix(0.07469135802469135,0,0,0.07469135802469135,82.6043209876543,0)" xlink:href="#T"/><use transform="matrix(0.07469135802469135,0,0,0.07469135802469135,96.04876543209875,0)" xlink:href="#S"/></g><path d="M238-179c0 84-86 86-175 82L45 0H11l48-248c82 0 179-12 179 69zm-34 1c0-53-64-42-116-43l-19 98c63 0 135 9 135-55" id="U"/><path d="M50-231l6-30h32l-6 30H50zM6 0l37-190h31L37 0H6" id="V"/><path d="M67-158c22-48 132-52 116 29L158 0h-32l25-140c3-38-53-32-70-12C52-117 51-52 38 0H6l36-190h30" id="W"/><path d="M11 0l48-248h184l-5 28H87l-15 79h140l-5 27H67L50-27h158l-5 27H11" id="X"/><path d="M198-190L69 30C53 58 25 83-20 72c4-11-1-27 19-22 33-1 43-29 59-52L20-190h32L79-34l84-156h35" id="Y"/><g id="c"><use transform="matrix(0.07469135802469135,0,0,0.07469135802469135,0,0)" xlink:href="#U"/><use transform="matrix(0.07469135802469135,0,0,0.07469135802469135,17.925925925925924,0)" xlink:href="#I"/><use transform="matrix(0.07469135802469135,0,0,0.07469135802469135,32.86419753086419,0)" xlink:href="#M"/><use transform="matrix(0.07469135802469135,0,0,0.07469135802469135,41.75246913580246,0)" xlink:href="#P"/><use transform="matrix(0.07469135802469135,0,0,0.07469135802469135,55.19691358024689,0)" xlink:href="#V"/><use transform="matrix(0.07469135802469135,0,0,0.07469135802469135,61.09753086419751,0)" xlink:href="#P"/><use transform="matrix(0.07469135802469135,0,0,0.07469135802469135,74.54197530864195,0)" xlink:href="#S"/><use transform="matrix(0.07469135802469135,0,0,0.07469135802469135,82.01111111111109,0)" xlink:href="#I"/><use transform="matrix(0.07469135802469135,0,0,0.07469135802469135,96.94938271604936,0)" xlink:href="#W"/><use transform="matrix(0.07469135802469135,0,0,0.07469135802469135,111.88765432098762,0)" xlink:href="#S"/><use transform="matrix(0.07469135802469135,0,0,0.07469135802469135,119.35679012345675,0)" xlink:href="#X"/><use transform="matrix(0.07469135802469135,0,0,0.07469135802469135,137.28271604938269,0)" xlink:href="#W"/><use transform="matrix(0.07469135802469135,0,0,0.07469135802469135,152.22098765432096,0)" xlink:href="#S"/><use transform="matrix(0.07469135802469135,0,0,0.07469135802469135,159.6901234567901,0)" xlink:href="#V"/><use transform="matrix(0.07469135802469135,0,0,0.07469135802469135,165.5907407407407,0)" xlink:href="#S"/><use transform="matrix(0.07469135802469135,0,0,0.07469135802469135,173.0598765432099,0)" xlink:href="#Y"/></g><path fill="#333" d="M198-261c85 0 136 45 136 128 0 61-22 111-78 115-29 2-39-18-37-44-12 23-32 44-66 44-41 0-58-28-58-68 0-60 30-105 88-108 29-1 43 15 54 32l7-28h28c-9 45-23 84-27 134-1 11 6 17 14 16 39-4 51-48 51-92 0-69-42-107-112-107-93 0-145 59-145 153C53-15 94 26 168 27c43 0 78-13 106-28l9 19c-30 18-67 32-115 32C79 50 28-1 28-86c0-107 62-175 170-175zM158-41c46 0 70-43 70-90 0-26-17-40-43-40-44 0-59 41-61 85-1 26 9 45 34 45" id="Z"/><path fill="#333" d="M33 0v-248h34V0H33" id="aa"/><path fill="#333" d="M85-194c31 0 48 13 60 33l-1-100h32l1 261h-30c-2-10 0-23-3-31C134-8 116 4 85 4 32 4 16-35 15-94c0-66 23-100 70-100zm9 24c-40 0-46 34-46 75 0 40 6 74 45 74 42 0 51-32 51-76 0-42-9-74-50-73" id="ab"/><g id="d"><use transform="matrix(0.07407407407407401,0,0,0.07407407407407401,0,0)" xlink:href="#Z"/><use transform="matrix(0.07407407407407401,0,0,0.07407407407407401,27.037037037037017,0)" xlink:href="#aa"/><use transform="matrix(0.07407407407407401,0,0,0.07407407407407401,34.444444444444414,0)" xlink:href="#ab"/></g><path fill="#333" d="M143 4C61 4 22-44 18-125c-5-107 100-154 193-111 17 8 29 25 37 43l-32 9c-13-25-37-40-76-40-61 0-88 39-88 99 0 61 29 100 91 101 35 0 62-11 79-27v-45h-74v-28h105v86C228-13 192 4 143 4" id="ac"/><path fill="#333" d="M100-194c63 0 86 42 84 106H49c0 40 14 67 53 68 26 1 43-12 49-29l28 8c-11 28-37 45-77 45C44 4 14-33 15-96c1-61 26-98 85-98zm52 81c6-60-76-77-97-28-3 7-6 17-6 28h103" id="ad"/><path fill="#333" d="M117-194c89-4 53 116 60 194h-32v-121c0-31-8-49-39-48C34-167 62-67 57 0H25l-1-190h30c1 10-1 24 2 32 11-22 29-35 61-36" id="ae"/><path fill="#333" d="M114-163C36-179 61-72 57 0H25l-1-190h30c1 12-1 29 2 39 6-27 23-49 58-41v29" id="af"/><path fill="#333" d="M141-36C126-15 110 5 73 4 37 3 15-17 15-53c-1-64 63-63 125-63 3-35-9-54-41-54-24 1-41 7-42 31l-33-3c5-37 33-52 76-52 45 0 72 20 72 64v82c-1 20 7 32 28 27v20c-31 9-61-2-59-35zM48-53c0 20 12 33 32 33 41-3 63-29 60-74-43 2-92-5-92 41" id="ag"/><path fill="#333" d="M59-47c-2 24 18 29 38 22v24C64 9 27 4 27-40v-127H5v-23h24l9-43h21v43h35v23H59v120" id="ah"/><path fill="#333" d="M137 0h-34L2-248h35l83 218 83-218h36" id="ai"/><path fill="#333" d="M24 0v-261h32V0H24" id="aj"/><path fill="#333" d="M84 4C-5 8 30-112 23-190h32v120c0 31 7 50 39 49 72-2 45-101 50-169h31l1 190h-30c-1-10 1-25-2-33-11 22-28 36-60 37" id="ak"/><g id="e"><use transform="matrix(0.07407407407407401,0,0,0.07407407407407401,0,0)" xlink:href="#Z"/><use transform="matrix(0.07407407407407401,0,0,0.07407407407407401,27.037037037037017,0)" xlink:href="#ac"/><use transform="matrix(0.07407407407407401,0,0,0.07407407407407401,47.777777777777736,0)" xlink:href="#ad"/><use transform="matrix(0.07407407407407401,0,0,0.07407407407407401,62.592592592592545,0)" xlink:href="#ae"/><use transform="matrix(0.07407407407407401,0,0,0.07407407407407401,77.40740740740735,0)" xlink:href="#ad"/><use transform="matrix(0.07407407407407401,0,0,0.07407407407407401,92.22222222222214,0)" xlink:href="#af"/><use transform="matrix(0.07407407407407401,0,0,0.07407407407407401,101.03703703703695,0)" xlink:href="#ag"/><use transform="matrix(0.07407407407407401,0,0,0.07407407407407401,115.85185185185176,0)" xlink:href="#ah"/><use transform="matrix(0.07407407407407401,0,0,0.07407407407407401,123.25925925925915,0)" xlink:href="#ad"/><use transform="matrix(0.07407407407407401,0,0,0.07407407407407401,138.07407407407396,0)" xlink:href="#ab"/><use transform="matrix(0.07407407407407401,0,0,0.07407407407407401,152.88888888888877,0)" xlink:href="#ai"/><use transform="matrix(0.07407407407407401,0,0,0.07407407407407401,168.66666666666654,0)" xlink:href="#ag"/><use transform="matrix(0.07407407407407401,0,0,0.07407407407407401,183.48148148148138,0)" xlink:href="#aj"/><use transform="matrix(0.07407407407407401,0,0,0.07407407407407401,189.3333333333332,0)" xlink:href="#ak"/><use transform="matrix(0.07407407407407401,0,0,0.07407407407407401,204.148148148148,0)" xlink:href="#ad"/></g><path fill="#333" d="M24-231v-30h32v30H24zM24 0v-190h32V0H24" id="al"/><g id="f"><use transform="matrix(0.07407407407407401,0,0,0.07407407407407401,0,0)" xlink:href="#al"/><use transform="matrix(0.07407407407407401,0,0,0.07407407407407401,5.851851851851847,0)" xlink:href="#ab"/></g><path fill="#333" d="M63-220v92h138v28H63V0H30v-248h175v28H63" id="am"/><path fill="#333" d="M96-169c-40 0-48 33-48 73s9 75 48 75c24 0 41-14 43-38l32 2c-6 37-31 61-74 61-59 0-76-41-82-99-10-93 101-131 147-64 4 7 5 14 7 22l-32 3c-4-21-16-35-41-35" id="an"/><path fill="#333" d="M100-194c62-1 85 37 85 99 1 63-27 99-86 99S16-35 15-95c0-66 28-99 85-99zM99-20c44 1 53-31 53-75 0-43-8-75-51-75s-53 32-53 75 10 74 51 75" id="ao"/><path fill="#333" d="M212-179c-10-28-35-45-73-45-59 0-87 40-87 99 0 60 29 101 89 101 43 0 62-24 78-52l27 14C228-24 195 4 139 4 59 4 22-46 18-125c-6-104 99-153 187-111 19 9 31 26 39 46" id="ap"/><path fill="#333" d="M106-169C34-169 62-67 57 0H25v-261h32l-1 103c12-21 28-36 61-36 89 0 53 116 60 194h-32v-121c2-32-8-49-39-48" id="aq"/><g id="g"><use transform="matrix(0.07407407407407404,0,0,0.07407407407407404,0,0)" xlink:href="#am"/><use transform="matrix(0.07407407407407404,0,0,0.07407407407407404,16.222222222222214,0)" xlink:href="#al"/><use transform="matrix(0.07407407407407404,0,0,0.07407407407407404,22.074074074074062,0)" xlink:href="#an"/><use transform="matrix(0.07407407407407404,0,0,0.07407407407407404,35.40740740740739,0)" xlink:href="#ah"/><use transform="matrix(0.07407407407407404,0,0,0.07407407407407404,42.814814814814795,0)" xlink:href="#al"/><use transform="matrix(0.07407407407407404,0,0,0.07407407407407404,48.66666666666664,0)" xlink:href="#ao"/><use transform="matrix(0.07407407407407404,0,0,0.07407407407407404,63.48148148148145,0)" xlink:href="#ae"/><use transform="matrix(0.07407407407407404,0,0,0.07407407407407404,78.29629629629626,0)" xlink:href="#ag"/><use transform="matrix(0.07407407407407404,0,0,0.07407407407407404,93.11111111111107,0)" xlink:href="#aj"/><use transform="matrix(0.07407407407407404,0,0,0.07407407407407404,98.96296296296292,0)" xlink:href="#ap"/><use transform="matrix(0.07407407407407404,0,0,0.07407407407407404,118.1481481481481,0)" xlink:href="#aq"/><use transform="matrix(0.07407407407407404,0,0,0.07407407407407404,132.9629629629629,0)" xlink:href="#ag"/><use transform="matrix(0.07407407407407404,0,0,0.07407407407407404,147.77777777777771,0)" xlink:href="#af"/><use transform="matrix(0.07407407407407404,0,0,0.07407407407407404,156.59259259259252,0)" xlink:href="#ag"/><use transform="matrix(0.07407407407407404,0,0,0.07407407407407404,171.40740740740733,0)" xlink:href="#an"/><use transform="matrix(0.07407407407407404,0,0,0.07407407407407404,184.74074074074065,0)" xlink:href="#ah"/><use transform="matrix(0.07407407407407404,0,0,0.07407407407407404,192.14814814814804,0)" xlink:href="#ad"/><use transform="matrix(0.07407407407407404,0,0,0.07407407407407404,206.96296296296285,0)" xlink:href="#af"/></g><path fill="#333" d="M210-169c-67 3-38 105-44 169h-31v-121c0-29-5-50-35-48C34-165 62-65 56 0H25l-1-190h30c1 10-1 24 2 32 10-44 99-50 107 0 11-21 27-35 58-36 85-2 47 119 55 194h-31v-121c0-29-5-49-35-48" id="ar"/><path fill="#333" d="M177-190C167-65 218 103 67 71c-23-6-38-20-44-43l32-5c15 47 100 32 89-28v-30C133-14 115 1 83 1 29 1 15-40 15-95c0-56 16-97 71-98 29-1 48 16 59 35 1-10 0-23 2-32h30zM94-22c36 0 50-32 50-73 0-42-14-75-50-75-39 0-46 34-46 75s6 73 46 73" id="as"/><g id="h"><use transform="matrix(0.07407407407407404,0,0,0.07407407407407404,0,0)" xlink:href="#al"/><use transform="matrix(0.07407407407407404,0,0,0.07407407407407404,5.851851851851849,0)" xlink:href="#ar"/><use transform="matrix(0.07407407407407404,0,0,0.07407407407407404,27.999999999999982,0)" xlink:href="#ag"/><use transform="matrix(0.07407407407407404,0,0,0.07407407407407404,42.814814814814795,0)" xlink:href="#as"/><use transform="matrix(0.07407407407407404,0,0,0.07407407407407404,57.629629629629605,0)" xlink:href="#ad"/></g><g id="i"><use transform="matrix(0.07407407407407404,0,0,0.07407407407407404,0,0)" xlink:href="#ae"/><use transform="matrix(0.07407407407407404,0,0,0.07407407407407404,14.814814814814808,0)" xlink:href="#ag"/><use transform="matrix(0.07407407407407404,0,0,0.07407407407407404,29.629629629629616,0)" xlink:href="#ar"/><use transform="matrix(0.07407407407407404,0,0,0.07407407407407404,51.77777777777776,0)" xlink:href="#ad"/></g><g id="j"><use transform="matrix(0.07407407407407404,0,0,0.07407407407407404,0,0)" xlink:href="#ag"/><use transform="matrix(0.07407407407407404,0,0,0.07407407407407404,14.814814814814808,0)" xlink:href="#as"/><use transform="matrix(0.07407407407407404,0,0,0.07407407407407404,29.629629629629616,0)" xlink:href="#ad"/></g><path fill="#333" d="M206 0h-36l-40-164L89 0H53L-1-190h32L70-26l43-164h34l41 164 42-164h31" id="at"/><g id="k"><use transform="matrix(0.07407407407407404,0,0,0.07407407407407404,0,0)" xlink:href="#at"/><use transform="matrix(0.07407407407407404,0,0,0.07407407407407404,19.185185185185176,0)" xlink:href="#ad"/><use transform="matrix(0.07407407407407404,0,0,0.07407407407407404,33.999999999999986,0)" xlink:href="#al"/><use transform="matrix(0.07407407407407404,0,0,0.07407407407407404,39.85185185185183,0)" xlink:href="#as"/><use transform="matrix(0.07407407407407404,0,0,0.07407407407407404,54.66666666666664,0)" xlink:href="#aq"/><use transform="matrix(0.07407407407407404,0,0,0.07407407407407404,69.48148148148145,0)" xlink:href="#ah"/></g><path fill="#333" d="M135-143c-3-34-86-38-87 0 15 53 115 12 119 90S17 21 10-45l28-5c4 36 97 45 98 0-10-56-113-15-118-90-4-57 82-63 122-42 12 7 21 19 24 35" id="au"/><path fill="#333" d="M179-190L93 31C79 59 56 82 12 73V49c39 6 53-20 64-50L1-190h34L92-34l54-156h33" id="av"/><g id="l"><use transform="matrix(0.07407407407407404,0,0,0.07407407407407404,0,0)" xlink:href="#au"/><use transform="matrix(0.07407407407407404,0,0,0.07407407407407404,13.333333333333327,0)" xlink:href="#ah"/><use transform="matrix(0.07407407407407404,0,0,0.07407407407407404,20.740740740740733,0)" xlink:href="#ao"/><use transform="matrix(0.07407407407407404,0,0,0.07407407407407404,35.555555555555536,0)" xlink:href="#af"/><use transform="matrix(0.07407407407407404,0,0,0.07407407407407404,44.370370370370345,0)" xlink:href="#av"/></g><path fill="#333" d="M115-194c55 1 70 41 70 98S169 2 115 4C84 4 66-9 55-30l1 105H24l-1-265h31l2 30c10-21 28-34 59-34zm-8 174c40 0 45-34 45-75s-6-73-45-74c-42 0-51 32-51 76 0 43 10 73 51 73" id="aw"/><g id="m"><use transform="matrix(0.07407407407407404,0,0,0.07407407407407404,0,0)" xlink:href="#ag"/><use transform="matrix(0.07407407407407404,0,0,0.07407407407407404,14.814814814814808,0)" xlink:href="#aw"/><use transform="matrix(0.07407407407407404,0,0,0.07407407407407404,29.629629629629616,0)" xlink:href="#aw"/><use transform="matrix(0.07407407407407404,0,0,0.07407407407407404,44.44444444444443,0)" xlink:href="#ad"/><use transform="matrix(0.07407407407407404,0,0,0.07407407407407404,59.25925925925923,0)" xlink:href="#ag"/><use transform="matrix(0.07407407407407404,0,0,0.07407407407407404,74.07407407407403,0)" xlink:href="#af"/><use transform="matrix(0.07407407407407404,0,0,0.07407407407407404,82.88888888888884,0)" xlink:href="#ag"/><use transform="matrix(0.07407407407407404,0,0,0.07407407407407404,97.70370370370364,0)" xlink:href="#ae"/><use transform="matrix(0.07407407407407404,0,0,0.07407407407407404,112.51851851851848,0)" xlink:href="#an"/><use transform="matrix(0.07407407407407404,0,0,0.07407407407407404,125.85185185185179,0)" xlink:href="#ad"/><use transform="matrix(0.07407407407407404,0,0,0.07407407407407404,140.6666666666666,0)" xlink:href="#au"/></g><path fill="#333" d="M233-177c-1 41-23 64-60 70L243 0h-38l-65-103H63V0H30v-248c88 3 205-21 203 71zM63-129c60-2 137 13 137-47 0-61-80-42-137-45v92" id="ax"/><path fill="#333" d="M185-189c-5-48-123-54-124 2 14 75 158 14 163 119 3 78-121 87-175 55-17-10-28-26-33-46l33-7c5 56 141 63 141-1 0-78-155-14-162-118-5-82 145-84 179-34 5 7 8 16 11 25" id="ay"/><path fill="#333" d="M87 75C49 33 22-17 22-94c0-76 28-126 65-167h31c-38 41-64 92-64 168S80 34 118 75H87" id="az"/><path fill="#333" d="M33-261c38 41 65 92 65 168S71 34 33 75H2C39 34 66-17 66-93S39-220 2-261h31" id="aA"/><g id="n"><use transform="matrix(0.07407407407407404,0,0,0.07407407407407404,0,0)" xlink:href="#ab"/><use transform="matrix(0.07407407407407404,0,0,0.07407407407407404,14.814814814814808,0)" xlink:href="#ad"/><use transform="matrix(0.07407407407407404,0,0,0.07407407407407404,29.629629629629616,0)" xlink:href="#ah"/><use transform="matrix(0.07407407407407404,0,0,0.07407407407407404,37.03703703703702,0)" xlink:href="#ag"/><use transform="matrix(0.07407407407407404,0,0,0.07407407407407404,51.851851851851826,0)" xlink:href="#an"/><use transform="matrix(0.07407407407407404,0,0,0.07407407407407404,65.18518518518515,0)" xlink:href="#aq"/><use transform="matrix(0.07407407407407404,0,0,0.07407407407407404,79.99999999999997,0)" xlink:href="#ax"/><use transform="matrix(0.07407407407407404,0,0,0.07407407407407404,99.18518518518512,0)" xlink:href="#ad"/><use transform="matrix(0.07407407407407404,0,0,0.07407407407407404,113.99999999999996,0)" xlink:href="#aj"/><use transform="matrix(0.07407407407407404,0,0,0.07407407407407404,119.85185185185178,0)" xlink:href="#ag"/><use transform="matrix(0.07407407407407404,0,0,0.07407407407407404,134.6666666666666,0)" xlink:href="#ah"/><use transform="matrix(0.07407407407407404,0,0,0.07407407407407404,142.074074074074,0)" xlink:href="#al"/><use transform="matrix(0.07407407407407404,0,0,0.07407407407407404,147.92592592592584,0)" xlink:href="#ao"/><use transform="matrix(0.07407407407407404,0,0,0.07407407407407404,162.74074074074065,0)" xlink:href="#ae"/><use transform="matrix(0.07407407407407404,0,0,0.07407407407407404,177.55555555555546,0)" xlink:href="#ay"/><use transform="matrix(0.07407407407407404,0,0,0.07407407407407404,195.33333333333323,0)" xlink:href="#aq"/><use transform="matrix(0.07407407407407404,0,0,0.07407407407407404,210.148148148148,0)" xlink:href="#al"/><use transform="matrix(0.07407407407407404,0,0,0.07407407407407404,215.9999999999999,0)" xlink:href="#aw"/><use transform="matrix(0.07407407407407404,0,0,0.07407407407407404,230.8148148148147,0)" xlink:href="#au"/><use transform="matrix(0.07407407407407404,0,0,0.07407407407407404,244.148148148148,0)" xlink:href="#az"/><use transform="matrix(0.07407407407407404,0,0,0.07407407407407404,252.96296296296282,0)" xlink:href="#aA"/></g><path d="M103-194c29 0 47 14 56 36 2-11 5-23 8-32h30L160-5C157 61 82 97 21 62 9 55 4 45 1 30l28-7c7 42 83 31 92-3 4-16 9-38 13-55-13 20-29 36-62 36-40 0-60-25-60-64 0-71 23-131 91-131zm4 24c-53 0-58 54-61 104-2 27 10 44 36 44 49 0 65-50 67-102 1-29-15-46-42-46" id="aB"/><path d="M151-220L108 0H75l42-220H32l6-28h203l-5 28h-85" id="aC"/><g id="o"><use transform="matrix(0.05,0,0,0.05,0,0)" xlink:href="#E"/><use transform="matrix(0.05,0,0,0.05,18.25,0)" xlink:href="#K"/><use transform="matrix(0.05,0,0,0.05,30.25,0)" xlink:href="#V"/><use transform="matrix(0.05,0,0,0.05,34.2,0)" xlink:href="#W"/><use transform="matrix(0.05,0,0,0.05,44.2,0)" xlink:href="#aB"/><use transform="matrix(0.05,0,0,0.05,54.2,0)" xlink:href="#O"/><use transform="matrix(0.05,0,0,0.05,58.150000000000006,0)" xlink:href="#I"/><use transform="matrix(0.05,0,0,0.05,68.15,0)" xlink:href="#aC"/><use transform="matrix(0.05,0,0,0.05,77.45,0)" xlink:href="#G"/><use transform="matrix(0.05,0,0,0.05,87.45,0)" xlink:href="#R"/><use transform="matrix(0.05,0,0,0.05,97.45,0)" xlink:href="#O"/><use transform="matrix(0.05,0,0,0.05,101.4,0)" xlink:href="#I"/></g><path fill="#333" d="M187 0l-14-72H61L19 0h-37l149-248h38L221 0h-34zm-19-99l-22-123L76-99h92" id="aD"/><path fill="#333" d="M68-162c25-46 127-43 121 31C183-60 169 1 98 4 69 5 53-11 43-31L36 0H5l52-261h31zm88 36c2-27-9-43-34-43-55 0-70 51-70 103 0 29 15 45 43 46 52 0 58-58 61-106" id="aE"/><path fill="#333" d="M55-144c13 50 104 24 104 88C159 21 15 23 1-39l26-10c6 40 102 42 102-4-13-50-104-23-104-87 0-71 143-71 148-8l-29 4c-5-35-85-37-89 0" id="aF"/><path fill="#333" d="M51-54c-9 22 5 41 31 30L79-1C43 14 10-4 19-52l22-115H19l5-23h22l19-43h21l-9 43h35l-4 23H73" id="aG"/><path fill="#333" d="M66-151c12-25 30-51 66-40l-6 26C45-176 58-65 38 0H6l36-190h30" id="aH"/><path fill="#333" d="M165-48c-4 18 1 34 23 27l-3 20c-29 8-62 0-52-35h-2C116-14 99 4 63 4 30 4 8-16 8-49c0-68 71-67 138-67 10-26 0-56-31-54-26 1-42 9-47 31l-32-5c8-67 160-71 144 15-5 28-9 54-15 81zM42-50c3 52 80 24 89-6 7-12 7-24 11-38-47 1-103-4-100 44" id="aI"/><path fill="#333" d="M44-68c0 29 11 47 38 47 30 0 42-19 51-41l28 9C148-21 126 4 82 4 31 4 10-29 12-85c3-77 74-140 146-93 12 8 15 23 18 40l-31 5c-1-22-13-36-36-36-52 0-65 49-65 101" id="aJ"/><g id="p"><use transform="matrix(0.07407407407407404,0,0,0.07407407407407404,0,0)" xlink:href="#aD"/><use transform="matrix(0.07407407407407404,0,0,0.07407407407407404,17.77777777777777,0)" xlink:href="#aE"/><use transform="matrix(0.07407407407407404,0,0,0.07407407407407404,32.59259259259258,0)" xlink:href="#aF"/><use transform="matrix(0.07407407407407404,0,0,0.07407407407407404,45.92592592592591,0)" xlink:href="#aG"/><use transform="matrix(0.07407407407407404,0,0,0.07407407407407404,53.33333333333331,0)" xlink:href="#aH"/><use transform="matrix(0.07407407407407404,0,0,0.07407407407407404,62.148148148148124,0)" xlink:href="#aI"/><use transform="matrix(0.07407407407407404,0,0,0.07407407407407404,76.96296296296293,0)" xlink:href="#aJ"/><use transform="matrix(0.07407407407407404,0,0,0.07407407407407404,90.29629629629626,0)" xlink:href="#aG"/></g><path fill="#333" d="M67-162c32-53 139-36 121 50C175-51 163 2 97 4 68 4 52-11 42-31 38 6 28 39 22 75H-9l50-265h29c-1 10 0 20-3 28zm89 36c0-26-10-43-35-43-54 0-67 50-69 103-1 29 14 45 42 46 53 0 62-58 62-106" id="aK"/><path fill="#333" d="M111-194c62-3 86 47 72 106H45c-7 38 6 69 45 68 27-1 43-14 53-32l24 11C152-15 129 4 87 4 38 3 12-23 12-71c0-70 32-119 99-123zm44 81c14-66-71-72-95-28-4 8-8 17-11 28h106" id="aL"/><path fill="#333" d="M67-158c22-48 132-52 116 29L158 0h-32l25-140c3-38-53-32-70-12C52-117 51-52 38 0H6l36-190h30" id="aM"/><g id="q"><use transform="matrix(0.07407407407407404,0,0,0.07407407407407404,0,0)" xlink:href="#aD"/><use transform="matrix(0.07407407407407404,0,0,0.07407407407407404,17.77777777777777,0)" xlink:href="#aK"/><use transform="matrix(0.07407407407407404,0,0,0.07407407407407404,32.59259259259258,0)" xlink:href="#aK"/><use transform="matrix(0.07407407407407404,0,0,0.07407407407407404,47.40740740740739,0)" xlink:href="#aL"/><use transform="matrix(0.07407407407407404,0,0,0.07407407407407404,62.22222222222221,0)" xlink:href="#aI"/><use transform="matrix(0.07407407407407404,0,0,0.07407407407407404,77.03703703703701,0)" xlink:href="#aH"/><use transform="matrix(0.07407407407407404,0,0,0.07407407407407404,85.85185185185182,0)" xlink:href="#aI"/><use transform="matrix(0.07407407407407404,0,0,0.07407407407407404,100.66666666666663,0)" xlink:href="#aM"/><use transform="matrix(0.07407407407407404,0,0,0.07407407407407404,115.48148148148144,0)" xlink:href="#aJ"/><use transform="matrix(0.07407407407407404,0,0,0.07407407407407404,128.81481481481475,0)" xlink:href="#aL"/></g><g id="r"><use transform="matrix(0.07407407407407404,0,0,0.07407407407407404,0,0)" xlink:href="#al"/><use transform="matrix(0.07407407407407404,0,0,0.07407407407407404,5.851851851851849,0)" xlink:href="#ar"/><use transform="matrix(0.07407407407407404,0,0,0.07407407407407404,27.999999999999982,0)" xlink:href="#ag"/><use transform="matrix(0.07407407407407404,0,0,0.07407407407407404,42.814814814814795,0)" xlink:href="#as"/><use transform="matrix(0.07407407407407404,0,0,0.07407407407407404,57.629629629629605,0)" xlink:href="#ad"/></g><g id="s"><use transform="matrix(0.07407407407407404,0,0,0.07407407407407404,0,0)" xlink:href="#ah"/><use transform="matrix(0.07407407407407404,0,0,0.07407407407407404,7.407407407407404,0)" xlink:href="#al"/><use transform="matrix(0.07407407407407404,0,0,0.07407407407407404,13.25925925925925,0)" xlink:href="#ah"/><use transform="matrix(0.07407407407407404,0,0,0.07407407407407404,20.666666666666657,0)" xlink:href="#aj"/><use transform="matrix(0.07407407407407404,0,0,0.07407407407407404,26.5185185185185,0)" xlink:href="#ad"/></g><path fill="#333" d="M30-248c118-7 216 8 213 122C240-48 200 0 122 0H30v-248zM63-27c89 8 146-16 146-99s-60-101-146-95v194" id="aN"/><g id="t"><use transform="matrix(0.07407407407407404,0,0,0.07407407407407404,0,0)" xlink:href="#af"/><use transform="matrix(0.07407407407407404,0,0,0.07407407407407404,8.814814814814811,0)" xlink:href="#ad"/><use transform="matrix(0.07407407407407404,0,0,0.07407407407407404,23.62962962962962,0)" xlink:href="#aj"/><use transform="matrix(0.07407407407407404,0,0,0.07407407407407404,29.48148148148147,0)" xlink:href="#ad"/><use transform="matrix(0.07407407407407404,0,0,0.07407407407407404,44.296296296296276,0)" xlink:href="#ag"/><use transform="matrix(0.07407407407407404,0,0,0.07407407407407404,59.111111111111086,0)" xlink:href="#au"/><use transform="matrix(0.07407407407407404,0,0,0.07407407407407404,72.44444444444441,0)" xlink:href="#ad"/><use transform="matrix(0.07407407407407404,0,0,0.07407407407407404,87.25925925925922,0)" xlink:href="#aN"/><use transform="matrix(0.07407407407407404,0,0,0.07407407407407404,106.4444444444444,0)" xlink:href="#ag"/><use transform="matrix(0.07407407407407404,0,0,0.07407407407407404,121.25925925925921,0)" xlink:href="#ah"/><use transform="matrix(0.07407407407407404,0,0,0.07407407407407404,128.6666666666666,0)" xlink:href="#ad"/></g><g id="u"><use transform="matrix(0.07407407407407404,0,0,0.07407407407407404,0,0)" xlink:href="#af"/><use transform="matrix(0.07407407407407404,0,0,0.07407407407407404,8.814814814814811,0)" xlink:href="#ag"/><use transform="matrix(0.07407407407407404,0,0,0.07407407407407404,23.62962962962962,0)" xlink:href="#ah"/><use transform="matrix(0.07407407407407404,0,0,0.07407407407407404,31.037037037037024,0)" xlink:href="#al"/><use transform="matrix(0.07407407407407404,0,0,0.07407407407407404,36.88888888888887,0)" xlink:href="#ae"/><use transform="matrix(0.07407407407407404,0,0,0.07407407407407404,51.70370370370368,0)" xlink:href="#as"/></g><g id="v"><use transform="matrix(0.07407407407407404,0,0,0.07407407407407404,0,0)" xlink:href="#as"/><use transform="matrix(0.07407407407407404,0,0,0.07407407407407404,14.814814814814808,0)" xlink:href="#ad"/><use transform="matrix(0.07407407407407404,0,0,0.07407407407407404,29.629629629629616,0)" xlink:href="#ae"/><use transform="matrix(0.07407407407407404,0,0,0.07407407407407404,44.44444444444443,0)" xlink:href="#af"/><use transform="matrix(0.07407407407407404,0,0,0.07407407407407404,53.25925925925923,0)" xlink:href="#ad"/></g><g id="w"><use transform="matrix(0.07407407407407404,0,0,0.07407407407407404,0,0)" xlink:href="#an"/><use transform="matrix(0.07407407407407404,0,0,0.07407407407407404,13.333333333333327,0)" xlink:href="#aq"/><use transform="matrix(0.07407407407407404,0,0,0.07407407407407404,28.148148148148135,0)" xlink:href="#ag"/><use transform="matrix(0.07407407407407404,0,0,0.07407407407407404,42.96296296296295,0)" xlink:href="#af"/><use transform="matrix(0.07407407407407404,0,0,0.07407407407407404,51.77777777777775,0)" xlink:href="#ag"/><use transform="matrix(0.07407407407407404,0,0,0.07407407407407404,66.59259259259255,0)" xlink:href="#an"/><use transform="matrix(0.07407407407407404,0,0,0.07407407407407404,79.92592592592588,0)" xlink:href="#ah"/><use transform="matrix(0.07407407407407404,0,0,0.07407407407407404,87.33333333333329,0)" xlink:href="#ad"/><use transform="matrix(0.07407407407407404,0,0,0.07407407407407404,102.14814814814808,0)" xlink:href="#af"/><use transform="matrix(0.07407407407407404,0,0,0.07407407407407404,110.9629629629629,0)" xlink:href="#au"/></g><path d="M248-139C247-14 144 9 11 0l48-248c105-6 190 8 189 109zm-34 0c1-70-52-87-126-82L50-27c98 7 163-21 164-112" id="aO"/><path d="M248-111c6-24 9-61-24-58-72 9-57 108-77 169h-31l26-142c3-37-50-30-64-10C52-115 50-51 37 0H6l36-190h30c-1 10-6 24-4 32 13-43 101-52 105 5 13-22 29-41 61-41 90 0 28 129 23 194h-31" id="aP"/><path d="M30-147c31-64 166-65 159 27C183-49 158 1 86 4 9 8 1-88 30-147zM88-20c53 0 68-48 68-100 0-31-11-51-44-50-52 1-68 46-68 97 0 32 13 53 44 53" id="aQ"/><path d="M119 0H84L31-248h34l41 218 126-218h36" id="aR"/><path d="M17-49c1-102 45-165 103-212h30C92-210 49-145 49-46 49 4 63 43 85 75H54C30 43 18 2 17-49" id="aS"/><path d="M9 0l6-27h63l36-188-63 39 6-31 66-41h29L110-27h60l-5 27H9" id="aT"/><path d="M98-137C97-35 54 29-4 75h-31C23 23 67-41 67-140c0-50-15-89-37-121h31c24 32 36 73 37 124" id="aU"/><g id="x"><use transform="matrix(0.05,0,0,0.05,0,0)" xlink:href="#E"/><use transform="matrix(0.05,0,0,0.05,18.25,0)" xlink:href="#aO"/><use transform="matrix(0.05,0,0,0.05,31.200000000000003,0)" xlink:href="#V"/><use transform="matrix(0.05,0,0,0.05,35.150000000000006,0)" xlink:href="#P"/><use transform="matrix(0.05,0,0,0.05,44.150000000000006,0)" xlink:href="#T"/><use transform="matrix(0.05,0,0,0.05,53.150000000000006,0)" xlink:href="#M"/><use transform="matrix(0.05,0,0,0.05,59.1,0)" xlink:href="#V"/><use transform="matrix(0.05,0,0,0.05,63.05000000000001,0)" xlink:href="#aP"/><use transform="matrix(0.05,0,0,0.05,78.00000000000001,0)" xlink:href="#V"/><use transform="matrix(0.05,0,0,0.05,81.95000000000002,0)" xlink:href="#W"/><use transform="matrix(0.05,0,0,0.05,91.95000000000002,0)" xlink:href="#G"/><use transform="matrix(0.05,0,0,0.05,101.95000000000002,0)" xlink:href="#S"/><use transform="matrix(0.05,0,0,0.05,106.95,0)" xlink:href="#V"/><use transform="matrix(0.05,0,0,0.05,110.90000000000003,0)" xlink:href="#aQ"/><use transform="matrix(0.05,0,0,0.05,120.90000000000003,0)" xlink:href="#W"/><use transform="matrix(0.05,0,0,0.05,130.90000000000003,0)" xlink:href="#aR"/><use transform="matrix(0.05,0,0,0.05,142.25000000000003,0)" xlink:href="#G"/><use transform="matrix(0.05,0,0,0.05,152.25000000000003,0)" xlink:href="#O"/><use transform="matrix(0.05,0,0,0.05,156.20000000000002,0)" xlink:href="#L"/><use transform="matrix(0.05,0,0,0.05,166.20000000000002,0)" xlink:href="#I"/><use transform="matrix(0.05,0,0,0.05,176.20000000000002,0)" xlink:href="#aS"/><use transform="matrix(0.05,0,0,0.05,182.15,0)" xlink:href="#aT"/><use transform="matrix(0.05,0,0,0.05,192.15,0)" xlink:href="#aU"/></g><path fill="#333" d="M240 0l2-218c-23 76-54 145-80 218h-23L58-218 59 0H30v-248h44l77 211c21-75 51-140 76-211h43V0h-30" id="aV"/><path fill="#333" d="M108 0H70L1-190h34L89-25l56-165h34" id="aW"/><g id="y"><use transform="matrix(0.07407407407407404,0,0,0.07407407407407404,0,0)" xlink:href="#aV"/><use transform="matrix(0.07407407407407404,0,0,0.07407407407407404,22.148148148148138,0)" xlink:href="#ao"/><use transform="matrix(0.07407407407407404,0,0,0.07407407407407404,36.96296296296295,0)" xlink:href="#aW"/><use transform="matrix(0.07407407407407404,0,0,0.07407407407407404,50.296296296296276,0)" xlink:href="#al"/><use transform="matrix(0.07407407407407404,0,0,0.07407407407407404,56.148148148148124,0)" xlink:href="#ad"/></g><path d="M123-251c66 0 92 69 53 113C138-94 73-75 39-27h128l-5 27H-2c17-92 123-93 159-163 14-28-1-64-36-62-29 2-46 17-54 41l-30-6c13-36 37-61 86-61" id="aX"/><g id="z"><use transform="matrix(0.05,0,0,0.05,0,0)" xlink:href="#E"/><use transform="matrix(0.05,0,0,0.05,18.25,0)" xlink:href="#aO"/><use transform="matrix(0.05,0,0,0.05,31.200000000000003,0)" xlink:href="#V"/><use transform="matrix(0.05,0,0,0.05,35.150000000000006,0)" xlink:href="#P"/><use transform="matrix(0.05,0,0,0.05,44.150000000000006,0)" xlink:href="#T"/><use transform="matrix(0.05,0,0,0.05,53.150000000000006,0)" xlink:href="#M"/><use transform="matrix(0.05,0,0,0.05,59.1,0)" xlink:href="#V"/><use transform="matrix(0.05,0,0,0.05,63.05000000000001,0)" xlink:href="#aP"/><use transform="matrix(0.05,0,0,0.05,78.00000000000001,0)" xlink:href="#V"/><use transform="matrix(0.05,0,0,0.05,81.95000000000002,0)" xlink:href="#W"/><use transform="matrix(0.05,0,0,0.05,91.95000000000002,0)" xlink:href="#G"/><use transform="matrix(0.05,0,0,0.05,101.95000000000002,0)" xlink:href="#S"/><use transform="matrix(0.05,0,0,0.05,106.95,0)" xlink:href="#V"/><use transform="matrix(0.05,0,0,0.05,110.90000000000003,0)" xlink:href="#aQ"/><use transform="matrix(0.05,0,0,0.05,120.90000000000003,0)" xlink:href="#W"/><use transform="matrix(0.05,0,0,0.05,130.90000000000003,0)" xlink:href="#aR"/><use transform="matrix(0.05,0,0,0.05,142.25000000000003,0)" xlink:href="#G"/><use transform="matrix(0.05,0,0,0.05,152.25000000000003,0)" xlink:href="#O"/><use transform="matrix(0.05,0,0,0.05,156.20000000000002,0)" xlink:href="#L"/><use transform="matrix(0.05,0,0,0.05,166.20000000000002,0)" xlink:href="#I"/><use transform="matrix(0.05,0,0,0.05,176.20000000000002,0)" xlink:href="#aS"/><use transform="matrix(0.05,0,0,0.05,182.15,0)" xlink:href="#aX"/><use transform="matrix(0.05,0,0,0.05,192.15,0)" xlink:href="#aU"/></g><g id="A"><use transform="matrix(0.07407407407407404,0,0,0.07407407407407404,0,0)" xlink:href="#ay"/><use transform="matrix(0.07407407407407404,0,0,0.07407407407407404,17.77777777777777,0)" xlink:href="#ad"/><use transform="matrix(0.07407407407407404,0,0,0.07407407407407404,32.59259259259258,0)" xlink:href="#af"/><use transform="matrix(0.07407407407407404,0,0,0.07407407407407404,41.40740740740739,0)" xlink:href="#al"/><use transform="matrix(0.07407407407407404,0,0,0.07407407407407404,47.25925925925924,0)" xlink:href="#ad"/><use transform="matrix(0.07407407407407404,0,0,0.07407407407407404,62.07407407407405,0)" xlink:href="#au"/></g><g id="B"><use transform="matrix(0.07407407407407404,0,0,0.07407407407407404,0,0)" xlink:href="#ac"/><use transform="matrix(0.07407407407407404,0,0,0.07407407407407404,20.740740740740733,0)" xlink:href="#ad"/><use transform="matrix(0.07407407407407404,0,0,0.07407407407407404,35.55555555555554,0)" xlink:href="#ae"/><use transform="matrix(0.07407407407407404,0,0,0.07407407407407404,50.370370370370345,0)" xlink:href="#af"/><use transform="matrix(0.07407407407407404,0,0,0.07407407407407404,59.18518518518516,0)" xlink:href="#ad"/></g><g id="C"><use transform="matrix(0.07407407407407404,0,0,0.07407407407407404,0,0)" xlink:href="#ae"/><use transform="matrix(0.07407407407407404,0,0,0.07407407407407404,14.814814814814808,0)" xlink:href="#ag"/><use transform="matrix(0.07407407407407404,0,0,0.07407407407407404,29.629629629629616,0)" xlink:href="#ar"/><use transform="matrix(0.07407407407407404,0,0,0.07407407407407404,51.77777777777776,0)" xlink:href="#ad"/></g><g id="D"><use transform="matrix(0.07407407407407404,0,0,0.07407407407407404,0,0)" xlink:href="#al"/><use transform="matrix(0.07407407407407404,0,0,0.07407407407407404,5.851851851851849,0)" xlink:href="#ar"/><use transform="matrix(0.07407407407407404,0,0,0.07407407407407404,27.999999999999982,0)" xlink:href="#ag"/><use transform="matrix(0.07407407407407404,0,0,0.07407407407407404,42.814814814814795,0)" xlink:href="#as"/><use transform="matrix(0.07407407407407404,0,0,0.07407407407407404,57.629629629629605,0)" xlink:href="#ad"/></g></defs></g></svg>